<svg width="352" height="124" viewBox="0 0 352 124" fill="none" xmlns="http://www.w3.org/2000/svg">
<path fill-rule="evenodd" clip-rule="evenodd" d="M124.368 115.222C113.76 121.181 32.1005 120.102 20.6539 112.799C-4.90187 96.4934 -6.18648 56.1084 13.726 45.836C24.2408 40.4113 25.0823 36.9805 21.2373 28.7512C16.2473 18.0708 26.364 6.06149 40.1719 2.45225C57.79 -2.15317 85.2654 0.352425 98.1056 4.82807C112.343 9.79065 126.254 19.8814 133.334 29.702C136.221 33.7072 138.231 37.9002 139.077 42.2011C139.897 46.3682 138.744 49.9804 135.707 52.8417C120.989 66.7161 133.173 70.0709 140.412 82.0005C148.543 95.3996 136.19 108.582 124.368 115.222Z" fill="#AAD5F5"/>
<path fill-rule="evenodd" clip-rule="evenodd" d="M4.20698 86.7386C3.92879 85.3703 3.98837 83.9065 4.72499 82.6844C5.34024 81.6638 6.34555 80.9761 7.52012 80.7747C9.38707 80.4548 11.2036 81.4185 12.0462 83.1034C12.758 84.5269 13.235 85.9179 13.6613 87.4438C13.8821 88.2349 14.1215 89.265 14.5547 89.9647C14.5993 90.0367 14.6472 90.108 14.6988 90.176C14.732 90.221 14.7715 90.2594 14.8158 90.2934C15.7509 91.0172 18.2108 90.3069 19.3451 90.822C20.848 91.5052 20.5994 93.9498 20.3687 95.2969L20.2492 95.9977L19.5999 96.2865C18.8341 96.6276 17.9121 96.8951 17.1005 97.0827C15.2954 97.5002 13.382 97.6336 11.5516 97.3064C6.73086 96.4459 5.04706 90.8717 4.20698 86.7386Z" fill="#000100"/>
<path fill-rule="evenodd" clip-rule="evenodd" d="M27.7631 108.798C20.829 104.971 17.65 102.247 17.0567 93.9735C16.833 90.8567 16.2795 88.1208 14.5409 85.4836C13.3974 83.7493 11.9004 82.1452 10.5836 80.5327C9.07418 78.6844 7.78117 75.9752 9.40758 73.7748C10.6399 72.1075 12.9466 71.7021 14.8754 72.0844C17.7992 72.6631 20.1147 76.4003 21.2644 78.8983C22.1885 80.9052 23.0177 83.485 22.9862 85.7128C22.9793 86.2177 22.9742 86.7225 22.976 87.2266C22.9807 88.5079 23.0111 89.9168 23.2578 91.1751C23.3207 91.4957 23.5781 92.5723 23.9074 92.7405C23.993 92.784 24.2057 92.7273 24.2858 92.7021C24.7855 92.5453 25.2893 92.2916 25.5938 91.8492C26.5297 90.4922 25.381 87.7073 24.7804 86.4311C23.1021 82.8647 22.2492 78.8482 26.288 76.6157C27.3109 76.0501 28.5129 75.7679 29.626 76.2567C31.9496 77.2766 32.0347 80.6373 31.8359 82.7685C31.6904 84.3295 31.4228 85.8945 31.3241 87.4547C31.2638 88.4067 31.2524 89.6229 31.7119 90.4889C31.9393 90.917 32.2661 91.2347 32.6763 91.4895C33.365 91.9176 33.9105 92.5423 33.9152 93.3963C33.9211 94.4166 33.1512 95.1269 32.3886 95.6756C31.7123 96.1622 30.9834 96.5811 30.2946 97.0516C29.7649 97.4132 28.7333 98.1534 28.5673 98.8122C28.5216 98.9942 28.5487 99.1613 28.6145 99.3349C28.7998 99.8233 29.036 100.294 29.301 100.744C30.3246 102.484 32.17 104.469 33.7993 105.698L36.1872 107.5L28.1817 109.03L27.7631 108.798Z" fill="#000100"/>
<path fill-rule="evenodd" clip-rule="evenodd" d="M28.4046 107.636C21.7195 103.945 18.9317 101.555 18.3812 93.8785C17.8306 86.2023 15.2983 84.207 11.6119 79.6934C7.92592 75.1797 11.2065 72.7107 14.6176 73.3862C18.0284 74.0622 21.7188 81.492 21.6592 85.6938C21.5996 89.8956 21.6903 94.9083 24.6843 93.9677C27.6783 93.0274 28.0285 90.2129 25.9824 85.8652C23.9363 81.5165 24.4222 79.1637 26.9314 77.7763C29.4403 76.3897 30.9198 78.3119 30.5158 82.645C30.1115 86.9777 28.9844 90.7565 31.9777 92.6162C34.971 94.4755 25.9356 96.0156 27.3752 99.8058C28.8152 103.596 33.0013 106.757 33.0013 106.757L28.4046 107.636Z" fill="#C8443E"/>
<path fill-rule="evenodd" clip-rule="evenodd" d="M11.5736 80.3715C11.48 80.5554 11.2548 80.6281 11.0713 80.5338C10.8878 80.4402 10.815 80.2154 10.9086 80.0315C11.6386 78.6073 12.8892 76.9692 14.2978 75.8549C15.4734 74.9253 16.7694 74.3506 17.9973 74.5301C18.202 74.5601 18.3435 74.7505 18.3139 74.9549C18.2836 75.1596 18.0938 75.3011 17.8891 75.2711C16.8885 75.1249 15.7856 75.6301 14.7609 76.4406C13.4376 77.4879 12.2612 79.0291 11.5736 80.3715Z" fill="#000100"/>
<path fill-rule="evenodd" clip-rule="evenodd" d="M14.2111 83.3783C14.1391 83.5717 13.9238 83.67 13.7308 83.5984C13.5374 83.5263 13.4391 83.311 13.5111 83.118C14.7317 79.8414 20.0014 78.0852 20.0167 78.0805C20.2127 78.014 20.4251 78.1196 20.4912 78.3148C20.5574 78.5108 20.4529 78.7232 20.2569 78.7897C20.2426 78.7941 15.3057 80.4402 14.2111 83.3783Z" fill="#000100"/>
<path fill-rule="evenodd" clip-rule="evenodd" d="M16.2689 86.5467C16.1296 86.6984 15.8935 86.7086 15.7414 86.5697C15.5893 86.4304 15.5791 86.1946 15.718 86.0422C17.8273 83.7413 21.9162 83.3648 21.9279 83.3633C22.1333 83.3428 22.3165 83.4935 22.3366 83.6989C22.3567 83.9044 22.2068 84.0875 22.001 84.1072C21.99 84.1087 18.1808 84.4604 16.2689 86.5467Z" fill="#000100"/>
<path fill-rule="evenodd" clip-rule="evenodd" d="M17.6654 91.1748C17.4939 91.2906 17.261 91.2453 17.1455 91.0742C17.03 90.9028 17.075 90.6692 17.2464 90.554C19.411 89.0896 22.2595 89.0896 22.2675 89.0896C22.474 89.0888 22.6418 89.2552 22.6426 89.4617C22.6437 89.6683 22.477 89.8357 22.2704 89.8368C22.2631 89.8368 19.6438 89.8368 17.6654 91.1748Z" fill="#000100"/>
<path fill-rule="evenodd" clip-rule="evenodd" d="M23.1039 105.017C23.0268 105.209 22.8093 105.302 22.6173 105.225C22.4258 105.148 22.3326 104.93 22.4093 104.739C22.9314 103.434 24.243 102.308 25.5028 101.543C26.7994 100.755 28.11 100.353 28.5008 100.51C28.6923 100.586 28.7856 100.804 28.7088 100.996C28.632 101.188 28.4145 101.281 28.2226 101.204C28.0043 101.116 26.9994 101.506 25.8899 102.181C24.7435 102.878 23.5569 103.884 23.1039 105.017Z" fill="#000100"/>
<path fill-rule="evenodd" clip-rule="evenodd" d="M18.7522 98.931C18.6041 99.075 18.3676 99.0721 18.2236 98.9237C18.0792 98.7753 18.0828 98.5387 18.2309 98.3951C18.2868 98.3402 18.349 98.2843 18.417 98.228C19.7506 97.1167 22.0262 97.0264 24.0577 97.3115C26.0807 97.5959 27.9075 98.2763 28.3041 98.6831C28.3151 98.6945 28.3286 98.7098 28.3443 98.7288C28.4763 98.8875 28.4547 99.1229 28.2961 99.2545C28.1374 99.3865 27.902 99.3646 27.77 99.2063C27.7674 99.2026 27.7718 99.2088 27.7674 99.2041C27.4523 98.8805 25.8252 98.3154 23.9549 98.0525C22.0931 97.7908 20.0339 97.8518 18.894 98.8019C18.8487 98.8403 18.8015 98.8835 18.7522 98.931Z" fill="#000100"/>
<path fill-rule="evenodd" clip-rule="evenodd" d="M24.3907 93.6083C24.1878 93.5688 24.0551 93.3722 24.095 93.1689C24.1344 92.9653 24.3311 92.8333 24.5344 92.8728C25.77 93.1144 26.7197 93.733 27.4099 94.4543C28.4024 95.4921 28.8587 96.7665 28.8587 97.4446C28.8587 97.6515 28.6905 97.8197 28.4836 97.8197C28.2767 97.8197 28.1089 97.6515 28.1089 97.4446C28.1089 96.9025 27.7192 95.8566 26.8711 94.9697C26.277 94.3493 25.4585 93.8171 24.3907 93.6083Z" fill="#000100"/>
<path fill-rule="evenodd" clip-rule="evenodd" d="M26.5073 92.1435C26.3388 92.2634 26.1056 92.2243 25.986 92.0561C25.8661 91.8876 25.9056 91.654 26.0738 91.5345C26.9548 90.9094 27.9309 90.6293 28.8334 90.5654C30.0234 90.4816 31.1033 90.7789 31.6779 91.162C31.8501 91.2764 31.8965 91.5093 31.7817 91.6818C31.667 91.854 31.4341 91.9004 31.2619 91.7856C30.7998 91.4778 29.9027 91.2409 28.8865 91.3126C28.1041 91.3674 27.2619 91.608 26.5073 92.1435Z" fill="#000100"/>
<path fill-rule="evenodd" clip-rule="evenodd" d="M25.8574 87.3158C25.6972 87.4467 25.4611 87.4229 25.3302 87.2628C25.1993 87.1027 25.2227 86.8669 25.3832 86.7357C27.5561 84.9583 30.8506 86.1208 30.8598 86.1244C31.0546 86.1917 31.1581 86.4041 31.0912 86.5989C31.0239 86.7938 30.8115 86.8972 30.6167 86.8307C30.6083 86.8274 27.706 85.8035 25.8574 87.3158Z" fill="#000100"/>
<path fill-rule="evenodd" clip-rule="evenodd" d="M24.5676 83.1191C24.4035 83.2445 24.1688 83.2131 24.0434 83.0493C23.918 82.8848 23.9495 82.6497 24.1136 82.5243C24.1805 82.4732 24.2573 82.4169 24.3435 82.3565C25.7049 81.4035 27.2743 81.0785 28.5618 81.069C29.9027 81.0595 30.9881 81.4233 31.2703 81.791L31.2875 81.8148C31.4067 81.9837 31.3657 82.2173 31.1965 82.3361C31.0276 82.4549 30.794 82.4143 30.6752 82.2454L30.6741 82.2443C30.5037 82.0239 29.6717 81.8082 28.564 81.8159C27.4019 81.8243 25.989 82.1156 24.7705 82.9689C24.712 83.0105 24.6444 83.0603 24.5676 83.1191Z" fill="#000100"/>
<path fill-rule="evenodd" clip-rule="evenodd" d="M5.50767 86.4739C6.61205 91.9048 8.4461 95.4037 11.7845 95.9999C15.4884 96.6616 19.06 95.0739 19.06 95.0739C19.06 95.0739 19.5232 92.3621 18.7957 92.0317C18.0682 91.7008 14.8271 92.5606 13.6364 90.9733C12.4458 89.3857 12.5781 87.1374 10.8585 83.6978C9.41302 80.8058 4.53453 81.6861 5.50767 86.4739Z" fill="#C8443E"/>
<path fill-rule="evenodd" clip-rule="evenodd" d="M5.39656 87.0427C5.24777 87.1857 5.01088 87.1813 4.86795 87.0321C4.72464 86.8837 4.7294 86.6465 4.87818 86.5035C5.75774 85.6561 7.00213 85.0526 8.20704 84.702C9.65176 84.2824 11.0724 84.2271 11.7746 84.5481C11.9621 84.634 12.0448 84.8559 11.9589 85.0435C11.8733 85.231 11.6514 85.3136 11.4639 85.2281C10.9115 84.9758 9.69819 85.0468 8.41468 85.42C7.31322 85.7399 6.18326 86.2846 5.39656 87.0427Z" fill="#000100"/>
<path fill-rule="evenodd" clip-rule="evenodd" d="M6.5455 91.2841C6.39196 91.4226 6.15507 91.4102 6.01689 91.2566C5.87834 91.1027 5.89077 90.8662 6.04467 90.7277C7.06753 89.805 8.35433 89.197 9.57167 88.8311C11.2986 88.3124 12.932 88.2893 13.4957 88.5496C13.6832 88.6359 13.7655 88.8582 13.6788 89.0461C13.5922 89.2336 13.3699 89.3155 13.1824 89.2288C12.7422 89.0256 11.3432 89.0808 9.78552 89.5487C8.66067 89.8869 7.47697 90.4447 6.5455 91.2841Z" fill="#000100"/>
<path fill-rule="evenodd" clip-rule="evenodd" d="M14.3339 90.7686C14.52 90.6783 14.7437 90.7566 14.8333 90.9426C14.9232 91.1287 14.8454 91.3524 14.6589 91.4424C12.7996 92.3431 11.5425 94.0298 10.9334 95.2304C10.7601 95.5722 10.6413 95.8701 10.5785 96.0946C10.5521 96.1882 10.4966 96.2031 10.4805 96.2185C10.5704 96.3004 10.619 96.4236 10.5993 96.553C10.5675 96.757 10.3767 96.8966 10.173 96.8648C10.0586 96.8473 9.9665 96.7928 9.89521 96.704C9.76945 96.5468 9.75556 96.2573 9.85792 95.8924C9.93286 95.6259 10.0692 95.2805 10.2655 94.8937C10.9272 93.5897 12.2977 91.7549 14.3339 90.7686Z" fill="#000100"/>
<path fill-rule="evenodd" clip-rule="evenodd" d="M16.0126 91.4599C15.9808 91.2563 16.1208 91.0655 16.3248 91.034C16.5288 91.0022 16.7196 91.1422 16.7511 91.3458C17.1967 94.1925 16.2038 96.6908 16.2013 96.6985C16.1259 96.8908 15.9088 96.9858 15.7165 96.9105C15.5239 96.8352 15.4284 96.6181 15.5041 96.4258C15.5067 96.4192 16.4264 94.103 16.0126 91.4599Z" fill="#000100"/>
<path fill-rule="evenodd" clip-rule="evenodd" d="M111.652 109.009C110.494 101.174 110.734 96.9953 116.955 91.5092C119.299 89.4423 121.14 87.3443 122.184 84.3631C122.871 82.4026 123.239 80.2392 123.723 78.215C124.279 75.894 125.651 73.2236 128.387 73.1837C130.46 73.1534 132.18 74.7429 133.045 76.5086C134.356 79.1849 132.787 83.2913 131.497 85.7201C130.46 87.6712 128.911 89.8945 127.12 91.2194C126.715 91.5195 126.31 91.8211 125.91 92.1285C124.894 92.9086 123.791 93.7867 122.94 94.7453C122.723 94.9902 122.022 95.8471 122.089 96.2112C122.106 96.3059 122.28 96.4404 122.349 96.4886C122.776 96.7913 123.283 97.0385 123.819 97.0129C125.466 96.9343 126.985 94.3333 127.636 93.0823C129.457 89.5856 132.134 86.4732 136.357 88.3332C137.427 88.8041 138.38 89.5893 138.666 90.7708C139.263 93.2373 136.641 95.3419 134.826 96.4751C133.496 97.3053 132.089 98.0405 130.788 98.908C129.994 99.4369 129.02 100.165 128.61 101.055C128.407 101.496 128.352 101.948 128.398 102.429C128.475 103.236 128.309 104.049 127.632 104.57C126.824 105.192 125.792 105.011 124.894 104.737C124.097 104.494 123.322 104.168 122.53 103.905C121.922 103.703 120.708 103.331 120.083 103.599C119.911 103.672 119.794 103.795 119.696 103.953C119.42 104.397 119.189 104.869 118.991 105.353C118.227 107.221 117.767 109.892 117.776 111.933L117.79 114.925L111.721 109.484L111.652 109.009Z" fill="#000100"/>
<path fill-rule="evenodd" clip-rule="evenodd" d="M112.965 108.816C111.849 101.262 112.061 97.5952 117.833 92.5051C123.606 87.4149 123.658 84.1913 125.014 78.5239C126.37 72.8562 130.323 73.9701 131.853 77.0924C133.382 80.2154 129.708 87.6532 126.33 90.1526C122.952 92.6516 119.019 95.7615 121.582 97.5733C124.145 99.385 126.596 97.9582 128.814 93.6953C131.033 89.4325 133.199 88.3928 135.823 89.5483C138.447 90.7035 137.814 93.045 134.123 95.3492C130.431 97.6537 126.742 99.048 127.077 102.556C127.412 106.064 120.711 99.8095 118.569 103.252C116.427 106.694 116.45 111.94 116.45 111.94L112.965 108.816Z" fill="#C8443E"/>
<path fill-rule="evenodd" clip-rule="evenodd" d="M124.451 78.9048C124.248 78.941 124.054 78.8058 124.018 78.6029C123.981 78.3996 124.117 78.2055 124.319 78.1693C125.897 77.8864 127.957 77.8878 129.695 78.3327C131.146 78.7045 132.388 79.3874 132.991 80.4739C133.09 80.6544 133.026 80.8818 132.845 80.9824C132.665 81.0829 132.437 81.0178 132.337 80.8372C131.847 79.9536 130.777 79.383 129.51 79.0591C127.874 78.6402 125.934 78.6383 124.451 78.9048Z" fill="#000100"/>
<path fill-rule="evenodd" clip-rule="evenodd" d="M123.658 82.8245C123.461 82.8844 123.253 82.7726 123.193 82.5755C123.133 82.3781 123.245 82.1697 123.442 82.1098C126.788 81.0953 131.379 84.2224 131.392 84.2315C131.563 84.3474 131.609 84.5803 131.493 84.7517C131.377 84.9232 131.144 84.9682 130.973 84.8526C130.96 84.8442 126.659 81.9146 123.658 82.8245Z" fill="#000100"/>
<path fill-rule="evenodd" clip-rule="evenodd" d="M122.385 86.3818C122.18 86.3628 122.029 86.1811 122.047 85.976C122.066 85.7709 122.247 85.6189 122.452 85.6375C125.561 85.9208 128.339 88.9448 128.347 88.9536C128.488 89.1045 128.479 89.3418 128.328 89.4822C128.176 89.6229 127.94 89.6145 127.799 89.4628C127.792 89.4551 125.204 86.6384 122.385 86.3818Z" fill="#000100"/>
<path fill-rule="evenodd" clip-rule="evenodd" d="M119.552 90.2963C119.356 90.2312 119.25 90.0192 119.316 89.8236C119.381 89.6277 119.593 89.5224 119.789 89.5875C122.268 90.4232 123.993 92.6868 123.998 92.6933C124.124 92.8564 124.094 93.0918 123.93 93.2176C123.767 93.344 123.532 93.3141 123.406 93.1503C123.401 93.1441 121.812 91.0585 119.552 90.2963Z" fill="#000100"/>
<path fill-rule="evenodd" clip-rule="evenodd" d="M111.836 103.011C111.645 103.064 111.444 102.958 111.382 102.769C111.316 102.573 111.423 102.362 111.619 102.297L111.637 102.292L111.636 102.291C112.991 101.915 114.682 102.276 116.053 102.814C117.465 103.368 118.579 104.167 118.692 104.574C118.747 104.773 118.63 104.979 118.431 105.034C118.232 105.089 118.026 104.972 117.972 104.773C117.909 104.548 116.989 103.985 115.78 103.511C114.53 103.021 113.01 102.686 111.836 103.012L111.836 103.011Z" fill="#000100"/>
<path fill-rule="evenodd" clip-rule="evenodd" d="M114.04 95.8632C113.836 95.8332 113.694 95.6431 113.724 95.4384C113.754 95.2336 113.944 95.0922 114.149 95.1222C114.229 95.1335 114.311 95.1492 114.395 95.1689C116.088 95.5561 117.539 97.3119 118.543 99.1021C119.544 100.883 120.109 102.748 120.026 103.309C120.024 103.327 120.019 103.347 120.015 103.37C119.969 103.572 119.768 103.698 119.566 103.652C119.365 103.606 119.239 103.404 119.285 103.203C119.286 103.201 119.285 103.205 119.285 103.201C119.352 102.753 118.815 101.116 117.891 99.4687C116.971 97.8299 115.675 96.2298 114.229 95.8986C114.169 95.8844 114.106 95.8727 114.04 95.8632Z" fill="#000100"/>
<path fill-rule="evenodd" clip-rule="evenodd" d="M121.691 97.1214C121.6 96.9357 121.676 96.7116 121.861 96.6202C122.047 96.5289 122.271 96.6049 122.362 96.7902C122.919 97.9209 123.004 99.0502 122.848 100.035C122.625 101.453 121.886 102.588 121.346 102.999C121.182 103.125 120.947 103.093 120.822 102.929C120.697 102.765 120.728 102.53 120.892 102.405C121.323 102.076 121.919 101.133 122.11 99.9206C122.244 99.0703 122.172 98.0957 121.691 97.1214Z" fill="#000100"/>
<path fill-rule="evenodd" clip-rule="evenodd" d="M124.138 97.918C123.94 97.8566 123.83 97.6464 123.892 97.4494C123.953 97.2519 124.162 97.1412 124.36 97.203C125.391 97.525 126.205 98.1311 126.803 98.8107C127.59 99.7053 128.009 100.745 128.052 101.435C128.065 101.641 127.908 101.819 127.702 101.832C127.495 101.845 127.318 101.688 127.305 101.482C127.27 100.928 126.914 100.072 126.241 99.3061C125.723 98.7175 125.021 98.1936 124.138 97.918Z" fill="#000100"/>
<path fill-rule="evenodd" clip-rule="evenodd" d="M127.585 94.4751C127.384 94.4272 127.259 94.2251 127.307 94.024C127.355 93.8226 127.556 93.6979 127.758 93.7454C130.491 94.3969 131.562 97.7224 131.565 97.7319C131.63 97.9282 131.523 98.1403 131.326 98.205C131.13 98.2701 130.918 98.163 130.853 97.9663C130.851 97.9575 129.906 95.0282 127.585 94.4751Z" fill="#000100"/>
<path fill-rule="evenodd" clip-rule="evenodd" d="M130.142 90.9061C129.942 90.8523 129.824 90.6461 129.878 90.4462C129.933 90.2466 130.138 90.1285 130.338 90.183C130.409 90.2016 130.5 90.229 130.611 90.2645C132.195 90.7704 133.405 91.8211 134.193 92.8392C135.014 93.9004 135.382 94.9843 135.261 95.4314C135.258 95.4435 135.254 95.4556 135.249 95.4673C135.186 95.6566 134.983 95.7634 134.79 95.706C134.596 95.6493 134.483 95.449 134.533 95.2549L134.538 95.2351C134.611 94.9664 134.279 94.1728 133.601 93.2958C132.89 92.376 131.801 91.4285 130.386 90.9766C130.327 90.958 130.245 90.9346 130.142 90.9061Z" fill="#000100"/>
<path fill-rule="evenodd" clip-rule="evenodd" d="M20.3738 110.451C43.4452 96.3618 77.33 91.8149 102.143 101.282C128.81 111.455 131.573 115.155 126.985 119.317C123.022 122.912 45.6477 127.886 22.0467 119.044C17.7019 117.416 14.6282 113.959 20.3738 110.451Z" fill="#DDB98B"/>
<path fill-rule="evenodd" clip-rule="evenodd" d="M24.1246 108.298C47.0065 95.922 78.6427 92.316 102.143 101.282C125.353 110.137 130.453 114.087 128.361 117.708C117.777 111.934 98.5351 99.7455 76.3909 98.9102C48.0195 97.8401 31.2144 112.379 24.1246 108.298Z" fill="#EACFA2"/>
<path fill-rule="evenodd" clip-rule="evenodd" d="M21.6471 110.068C33.5862 100.152 55.4913 95.8438 69.1427 95.3287C86.2893 94.6824 108.715 99.5514 124.248 110.653C125.816 111.774 125.428 111.497 126.908 112.843C124.939 111.883 123.106 110.774 121.159 109.743C95.9264 96.3896 61.1299 94.7931 35.1614 104.13C30.3418 105.863 26.2836 108.103 21.6471 110.068Z" fill="#000100"/>
<path fill-rule="evenodd" clip-rule="evenodd" d="M96.6144 118.499C97.2077 121.651 89.6489 120.634 92.5701 118.235C93.5078 117.465 95.8964 117.061 96.6144 118.499Z" fill="#C49E70"/>
<path fill-rule="evenodd" clip-rule="evenodd" d="M101.6 116.374C102.038 118.65 97.2805 117.673 99.3986 116.087C100.01 115.629 101.204 115.515 101.6 116.374Z" fill="#C49E70"/>
<path fill-rule="evenodd" clip-rule="evenodd" d="M105.342 117.237C105.78 119.513 101.023 118.536 103.141 116.949C103.752 116.491 104.946 116.377 105.342 117.237Z" fill="#C49E70"/>
<path fill-rule="evenodd" clip-rule="evenodd" d="M45.7647 115.832C45.0902 119.628 38.4493 115.351 42.1017 113.86C43.2748 113.38 45.6561 113.915 45.7647 115.832Z" fill="#C49E70"/>
<path fill-rule="evenodd" clip-rule="evenodd" d="M31.6015 114.231C33.5712 115.57 28.817 116.765 29.5167 114.892C29.7188 114.352 30.6605 113.814 31.6015 114.231Z" fill="#C49E70"/>
<path fill-rule="evenodd" clip-rule="evenodd" d="M38.5447 103.248C38.2801 109.121 46.0846 114.415 49.6565 114.787C53.2281 115.16 54.5511 115.532 54.5511 115.532C58.1651 120.178 71.4765 123.121 80.8764 119.007C80.8764 119.007 86.9612 119.255 89.4745 117.89C91.9882 116.525 92.5171 114.663 92.5171 114.663C92.5171 114.663 98.0727 114.787 100.983 112.926C103.894 111.065 108.127 104.084 106.936 103.712C105.746 103.34 38.5447 103.248 38.5447 103.248Z" fill="#C49E70"/>
<path fill-rule="evenodd" clip-rule="evenodd" d="M35.4575 115.662C36.238 118.334 31.2685 117.443 33.1826 115.444C33.735 114.868 34.9289 114.666 35.4575 115.662Z" fill="#C49E70"/>
<path fill-rule="evenodd" clip-rule="evenodd" d="M39.5131 77.3413C39.655 77.2287 39.7935 77.1179 39.9291 77.0097C48.123 70.439 59.0359 70.6397 68.6532 73.4502C70.7794 74.0713 72.9373 74.4709 75.1505 74.5974C77.3358 74.7216 79.5095 74.5758 81.6704 74.2387C85.276 73.6765 88.8055 72.5831 92.4652 72.3849C95.8292 72.2033 98.8217 72.8602 101.802 74.431C103.266 75.202 104.662 76.1565 105.99 77.2251C106.743 76.9103 107.804 77.009 108.497 77.1121C109.289 77.2294 110.147 77.4327 110.904 77.6981C112.177 78.1441 113.433 78.9114 114.452 79.7924C116.059 81.1834 117.378 83.1699 117.149 85.386C116.943 87.3805 116.026 89 114.711 90.2517C113.831 95.1978 111.488 99.6599 107.983 103.48C106.442 105.16 104.681 106.697 102.83 108.027C100.951 109.377 98.8773 110.59 96.7168 111.43C95.5711 111.875 94.4129 112.289 93.2168 112.579C92.3826 112.781 91.4211 112.952 90.5485 112.898C83.7117 120.029 62.0917 120.029 55.2545 112.898C54.3818 112.952 53.4204 112.781 52.5865 112.579C51.3897 112.289 50.2323 111.875 49.0862 111.43C46.9257 110.59 44.8519 109.378 42.9725 108.027C41.1223 106.696 39.361 105.16 37.8198 103.48C33.9002 99.2077 31.4322 94.1318 30.8415 88.4736C30.3067 87.5692 29.9495 86.5404 29.83 85.3863C29.7916 85.016 29.796 84.6417 29.8409 84.2721C30.0595 82.4837 31.1968 80.9429 32.5268 79.7928C33.5452 78.9121 34.8017 78.1445 36.0746 77.6985C36.6555 77.4948 37.2857 77.3406 37.8966 77.2689C38.4087 77.2082 38.9907 77.1995 39.5131 77.3413Z" fill="#000100"/>
<path fill-rule="evenodd" clip-rule="evenodd" d="M120.043 56.0433C121.257 56.701 122.517 57.6259 123.396 58.6579C124.85 60.3662 125.368 62.4225 124.554 64.557C123.422 67.5287 117.709 70.809 114.975 72.3396C112.61 73.6633 110.192 74.8894 107.747 76.0578C105.986 76.8997 104.167 77.5983 102.288 78.1295C100.556 78.6186 98.7946 78.9586 97.0088 79.1772C93.4117 79.6177 89.7571 79.5727 86.1402 79.5245C84.0879 79.4978 82.037 79.4674 79.9844 79.4806C77.6553 79.4952 75.3292 79.5647 73.0042 79.712C72.9355 79.716 72.8679 79.716 72.7988 79.712C68.3334 79.4294 63.8672 79.6301 59.3996 79.7058C55.0658 79.7793 50.6765 79.7358 46.4063 78.9118C43.9431 78.4365 41.5563 77.7043 39.2824 76.638C38.873 76.4464 38.4643 76.2523 38.056 76.0574C35.611 74.8895 33.1928 73.663 30.8283 72.3392C28.0935 70.8082 22.3804 67.5284 21.2486 64.5567C20.7017 63.1207 20.7372 61.6219 21.3865 60.2251C22.2108 58.4521 24.0321 56.9671 25.7586 56.039C25.4962 54.4433 25.4048 52.8468 25.7674 51.2533C26.2171 49.2767 27.3185 47.5435 28.5052 45.9307C29.9067 44.0257 32.0289 42.733 34.2826 42.0871C36.0326 41.5855 37.9313 41.4528 39.7259 41.7778C39.7438 41.7811 39.7672 41.7851 39.7924 41.7884C39.8363 41.7025 39.8805 41.5947 39.905 41.5365C39.999 41.3128 40.0827 41.0829 40.1642 40.8544C40.2494 40.6135 40.3313 40.3715 40.4124 40.1295C40.4654 39.9708 40.5166 39.8089 40.5744 39.6524C41.3505 37.5599 42.46 35.9072 44.2231 34.5202C47.1856 32.1901 51.0822 31.8004 54.6458 32.756C55.3762 32.9519 56.0477 33.3328 56.6857 33.7298C57.0128 33.9335 57.3356 34.1557 57.6694 34.3535C62.961 22.7423 82.8427 22.7423 88.1343 34.3531C88.4685 34.1557 88.7913 33.9335 89.1181 33.7298C89.7556 33.3325 90.4275 32.9519 91.1579 32.756C94.7215 31.8 98.6181 32.1897 101.58 34.5202C103.343 35.9075 104.453 37.5603 105.23 39.6524C105.287 39.8089 105.339 39.9712 105.391 40.1295C105.473 40.3718 105.554 40.6138 105.64 40.8544C105.721 41.0832 105.805 41.3128 105.899 41.5365C105.923 41.5947 105.967 41.7025 106.011 41.7884C106.036 41.7848 106.06 41.7807 106.078 41.7778C107.873 41.4524 109.772 41.5855 111.521 42.0871C113.775 42.733 115.897 44.0257 117.299 45.9307C118.486 47.5435 119.587 49.2763 120.036 51.2533C120.398 52.8486 120.306 54.4465 120.043 56.0433Z" fill="#000100"/>
<path fill-rule="evenodd" clip-rule="evenodd" d="M119.628 56.2484C120.921 56.9152 122.248 57.8876 123.11 58.901C124.468 60.496 124.973 62.4061 124.203 64.4236C123.116 67.2769 117.378 70.5637 114.791 72.0121C112.437 73.3303 110.02 74.5557 107.585 75.7197C96.5216 81.0058 88.0502 78.3839 72.9801 79.3373C72.9253 79.341 72.8781 79.341 72.8225 79.3373C61.1854 78.6011 49.7209 81.1158 39.4418 76.2987C39.0324 76.1072 38.6248 75.913 38.2179 75.7193C35.7829 74.5553 33.3665 73.3303 31.0115 72.0117C28.424 70.5633 22.6861 67.2765 21.5992 64.4233C21.0863 63.0765 21.1181 61.691 21.7264 60.3834C22.5303 58.6546 24.3837 57.1576 26.1743 56.2448C25.4424 52.0875 26.1429 49.7742 28.8075 46.1529C31.18 42.9279 35.7836 41.4448 39.659 42.147C39.7241 42.1587 39.916 42.1862 39.9858 42.1635C40.2253 41.9833 40.8028 40.1145 40.9257 39.7829C41.6777 37.7555 42.7389 36.1649 44.4545 34.8148C47.3337 32.5498 51.1009 32.1937 54.5482 33.1182C55.2369 33.3032 55.8854 33.6739 56.4872 34.0482C56.7226 34.1948 57.3992 34.6514 57.8478 34.881C62.7987 23.0666 83.0043 23.0666 87.9556 34.881C88.4041 34.6514 89.0801 34.1948 89.3159 34.0482C89.9176 33.6739 90.5665 33.3032 91.2548 33.1182C94.7025 32.1937 98.4689 32.5498 101.348 34.8148C103.064 36.1649 104.125 37.7555 104.877 39.7829C105 40.1145 105.577 41.9833 105.817 42.1635C105.887 42.1865 106.079 42.1587 106.144 42.147C110.02 41.4448 114.623 42.9279 116.996 46.1529C119.661 49.7757 120.361 52.0894 119.628 56.2484Z" fill="#000100"/>
<path fill-rule="evenodd" clip-rule="evenodd" d="M119.628 56.2484C120.921 56.9152 122.248 57.8876 123.11 58.901C124.468 60.496 124.973 62.4061 124.203 64.4236C123.116 67.2769 117.378 70.5637 114.791 72.0121C112.437 73.3303 110.02 74.5557 107.585 75.7197C106.463 76.2552 105.33 76.7868 104.192 77.2865C104.051 77.3483 103.922 77.3801 103.768 77.3896L72.9801 79.3373C72.9253 79.341 72.8781 79.341 72.8225 79.3373L42.0344 77.3896C41.8813 77.3801 41.7515 77.3483 41.6107 77.2865C40.472 76.7868 39.3395 76.2552 38.2179 75.7197C35.7829 74.5557 33.3665 73.3307 31.0115 72.0121C28.424 70.5637 22.6861 67.2769 21.5992 64.4236C21.0863 63.0769 21.1181 61.6914 21.7264 60.3837C22.5303 58.655 24.3837 57.158 26.1743 56.2451C25.4424 52.0879 26.1429 49.7746 28.8075 46.1533C31.18 42.9283 35.7836 41.4451 39.659 42.1474C39.7241 42.1591 39.916 42.1865 39.9858 42.1639C40.2253 41.9836 40.8028 40.1148 40.9257 39.7833C41.6777 37.7558 42.7389 36.1653 44.4545 34.8152C47.3337 32.5502 51.1009 32.1941 54.5482 33.1186C55.2369 33.3036 55.8854 33.6743 56.4872 34.0486C56.7226 34.1952 57.3992 34.6518 57.8478 34.8814C62.7987 23.067 83.0043 23.067 87.9556 34.8814C88.4041 34.6518 89.0801 34.1952 89.3159 34.0486C89.9176 33.6743 90.5665 33.3036 91.2548 33.1186C94.7025 32.1941 98.4689 32.5502 101.348 34.8152C103.064 36.1653 104.125 37.7558 104.877 39.7833C105 40.1148 105.577 41.9836 105.817 42.1639C105.887 42.1869 106.079 42.1591 106.144 42.1474C110.02 41.4451 114.623 42.9283 116.996 46.1533C119.661 49.7757 120.361 52.0894 119.628 56.2484Z" fill="#000100"/>
<path fill-rule="evenodd" clip-rule="evenodd" d="M42.1134 76.1423C42.1134 76.1423 24.4459 68.3845 22.7679 63.9791C21.0896 59.5729 27.5905 56.9726 27.5905 56.9726C26.6086 52.357 27.2703 50.3529 29.8146 46.8939C31.8486 44.1291 35.9324 42.7425 39.4364 43.3772C42.4585 43.9248 40.7498 39.3208 45.2277 35.7979C47.8674 33.7214 51.2365 33.5244 54.2247 34.3261C56.028 34.8097 58.2141 37.391 58.8714 35.6864C63.1975 24.4631 82.6058 24.4631 86.932 35.6864C87.5893 37.391 89.7754 34.8097 91.5787 34.3261C94.5668 33.5244 97.9363 33.7214 100.575 35.7979C105.054 39.3208 103.345 43.9248 106.367 43.3772C109.871 42.7422 113.955 44.1291 115.988 46.8939C118.533 50.3529 119.195 52.3566 118.213 56.9726C118.213 56.9726 124.714 59.5729 123.035 63.9791C121.357 68.3849 103.689 76.1423 103.689 76.1423L72.9015 78.0896L42.1134 76.1423Z" fill="#4A4B52"/>
<path fill-rule="evenodd" clip-rule="evenodd" d="M26.7142 57.3875C27.0593 57.2069 27.3306 57.0837 27.475 57.0212C27.5931 57.4672 27.7408 57.8924 27.9104 58.296C28.8641 60.5636 30.518 62.1549 31.6501 62.9515C31.838 63.0838 31.8834 63.343 31.751 63.5309C31.6187 63.7188 31.3595 63.7641 31.1712 63.6314C29.9528 62.7742 28.1725 61.0608 27.1449 58.6184C26.9807 58.2265 26.8352 57.816 26.7142 57.3875ZM27.1727 54.0751C27.1401 53.4573 27.158 52.8874 27.2264 52.3456C27.3163 52.4388 27.3613 52.5723 27.3361 52.709C27.2487 53.178 27.1957 53.6335 27.1727 54.0751Z" fill="#000100"/>
<path fill-rule="evenodd" clip-rule="evenodd" d="M40.4519 43.3238C40.8047 43.183 41.0489 42.8968 41.2521 42.5049C41.2528 43.2064 41.3267 43.9266 41.4579 44.6424C41.8582 46.8303 42.7897 48.9638 43.8056 50.4107C43.9379 50.5982 43.8926 50.8578 43.7047 50.9897C43.5168 51.1221 43.2573 51.0767 43.1253 50.8888C42.0487 49.3567 41.0628 47.1005 40.6405 44.7923C40.551 44.3035 40.4866 43.8122 40.4519 43.3238Z" fill="#000100"/>
<path fill-rule="evenodd" clip-rule="evenodd" d="M57.6149 36.1433C57.9326 36.2661 58.2141 36.3049 58.4429 36.2025C58.341 39.486 59.8778 44.0355 59.8826 44.0498C59.9553 44.2673 59.838 44.5027 59.6201 44.5755C59.4029 44.6482 59.1671 44.5309 59.0944 44.3137C59.09 44.2987 57.5027 39.6008 57.6149 36.1433Z" fill="#000100"/>
<path fill-rule="evenodd" clip-rule="evenodd" d="M87.0267 35.8852C87.223 36.2204 87.5096 36.3064 87.8565 36.2417C87.8463 37.5051 87.7691 38.7038 87.6532 39.7566C87.4547 41.5559 87.1352 42.9575 86.8344 43.5592C86.7324 43.7643 86.4827 43.8473 86.2783 43.7449C86.0733 43.6422 85.9903 43.3933 86.0926 43.1882C86.3529 42.6676 86.6381 41.3731 86.8267 39.6656C86.9506 38.5381 87.0288 37.2437 87.0267 35.8852Z" fill="#000100"/>
<path fill-rule="evenodd" clip-rule="evenodd" d="M104.368 42.1013C104.563 42.5839 104.78 42.9611 105.1 43.1871C105.021 43.7829 104.907 44.3891 104.769 44.9897C104.109 47.863 102.901 50.6286 102.569 51.3403C102.472 51.5476 102.225 51.6375 102.017 51.5403C101.809 51.4434 101.72 51.1959 101.817 50.9886C102.14 50.2966 103.315 47.6068 103.958 44.8043C104.169 43.889 104.322 42.9644 104.368 42.1013Z" fill="#000100"/>
<path fill-rule="evenodd" clip-rule="evenodd" d="M118.426 55.8587C118.366 56.2133 118.295 56.5833 118.213 56.9726C118.213 56.9726 118.46 57.0713 118.844 57.2625C118.738 57.5579 118.626 57.8507 118.508 58.1402C117.561 60.4605 116.249 62.5709 115.134 63.7268C114.975 63.8921 114.713 63.8976 114.547 63.7382C114.382 63.5788 114.376 63.3159 114.536 63.1503C115.584 62.0635 116.828 60.0536 117.736 57.8277C117.999 57.1821 118.234 56.52 118.426 55.8587Z" fill="#000100"/>
<path fill-rule="evenodd" clip-rule="evenodd" d="M29.7444 62.2989C29.086 58.4864 29.7448 56.3351 32.1999 52.9978C34.4083 49.9961 38.6866 48.615 42.2936 49.2687C42.3452 49.2778 42.4625 49.2961 42.5294 49.2891C42.7498 49.0372 43.2704 47.364 43.3936 47.0394C44.0893 45.2054 45.0792 43.7563 46.6336 42.5338C49.3107 40.4274 52.8125 40.0929 56.0189 40.9531C56.6634 41.1256 57.268 41.4704 57.8313 41.8209C58.0383 41.95 58.584 42.3188 58.9836 42.5356C59.7736 40.6917 60.9814 39.1008 62.5402 37.8231C69.6341 32.008 83.0054 33.6688 86.819 42.536C87.2186 42.3196 87.7647 41.9504 87.9717 41.8213C88.5346 41.4704 89.1393 41.126 89.7838 40.9535C92.9898 40.0933 96.4919 40.4278 99.1693 42.5342C100.724 43.7566 101.713 45.2061 102.409 47.0398C102.533 47.3648 103.053 49.0376 103.273 49.2895C103.34 49.2964 103.457 49.2785 103.509 49.269C107.116 48.6154 111.395 49.9965 113.602 52.9982C116.059 56.3362 116.717 58.4883 116.058 62.3026C117.248 62.9263 118.459 63.8252 119.249 64.7614C119.931 65.5708 120.421 66.5128 120.556 67.573C120.615 68.0416 120.426 68.4741 120.041 68.7483C118.379 69.932 116.6 70.9962 114.821 71.9942C112.46 73.3171 110.037 74.5473 107.595 75.7145C106.47 76.2526 105.334 76.7856 104.192 77.2872C104.051 77.349 103.921 77.3808 103.768 77.3903L72.9797 79.338C72.9249 79.3417 72.8777 79.3417 72.8222 79.338L42.0341 77.3903C41.8809 77.3808 41.7508 77.349 41.6104 77.2872C40.4683 76.7856 39.3322 76.2526 38.2069 75.7145C35.7653 74.5476 33.342 73.3171 30.9815 71.9942C29.2023 70.9965 27.4231 69.932 25.7616 68.7483C25.3766 68.4741 25.1873 68.0416 25.2468 67.573C25.3115 67.0612 25.4614 66.5673 25.6811 66.1012C26.4265 64.5212 28.1045 63.1492 29.7444 62.2989Z" fill="#000100"/>
<path fill-rule="evenodd" clip-rule="evenodd" d="M32.3494 65.2249C31.7448 61.6639 32.3728 59.6306 34.6756 56.5007C36.7637 53.6624 40.8047 52.3555 44.2169 52.9737C44.2552 52.981 44.3291 52.9923 44.3843 52.993C44.5938 52.6929 45.0646 51.1831 45.1845 50.8717C45.8404 49.1655 46.7769 47.8126 48.2238 46.6738C50.7536 44.6837 54.0623 44.3649 57.0925 45.1776C57.7048 45.3417 58.2781 45.6674 58.8129 46.0008C58.999 46.1167 59.4548 46.4256 59.8142 46.6278C64.288 36.3922 81.6002 36.6295 85.9895 46.6281C86.3489 46.4256 86.8048 46.1167 86.9908 46.0008C87.526 45.6674 88.0989 45.3417 88.7116 45.1776C91.7417 44.3645 95.0501 44.6837 97.5799 46.6738C99.0271 47.8126 99.9637 49.1655 100.619 50.8717C100.739 51.1831 101.21 52.6925 101.419 52.993C101.475 52.9923 101.548 52.9806 101.587 52.9737C104.999 52.3555 109.04 53.6624 111.128 56.5007C113.432 59.6314 114.06 61.6654 113.454 65.2286C114.568 65.8197 115.693 66.6623 116.43 67.5415C116.869 68.0661 117.229 68.654 117.451 69.3025C117.644 69.8658 117.424 70.4719 116.913 70.779C116.237 71.1855 115.555 71.5803 114.868 71.966C112.496 73.2974 110.063 74.5337 107.61 75.7065C106.48 76.2472 105.34 76.7816 104.193 77.2861C104.052 77.3479 103.922 77.3797 103.769 77.3892L72.9804 79.3369C72.9256 79.3406 72.8785 79.3406 72.8229 79.3369L42.0348 77.3892C41.8813 77.3797 41.7515 77.3479 41.6107 77.2861C40.4639 76.7816 39.3237 76.2468 38.1938 75.7065C35.7412 74.5337 33.3069 73.297 30.9358 71.966C30.2485 71.5803 29.566 71.1855 28.8904 70.779C28.3798 70.4719 28.1589 69.8658 28.3523 69.3025C28.4127 69.1263 28.4832 68.9541 28.5633 68.7863C29.2644 67.3123 30.8174 66.0303 32.3494 65.2249Z" fill="#000100"/>
<path fill-rule="evenodd" clip-rule="evenodd" d="M42.1134 76.1423C42.1134 76.1423 35.1365 73.0781 29.535 69.7079C30.3582 67.3087 33.7613 65.9473 33.7613 65.9473C32.9132 61.9601 33.4842 60.2291 35.6823 57.2413C37.4393 54.8531 40.967 53.6551 43.9935 54.2035C46.604 54.6769 45.1282 50.6995 48.9963 47.6561C51.2764 45.8627 54.187 45.6923 56.7679 46.3851C58.3256 46.8025 60.2141 49.0325 60.7815 47.56C64.5998 37.6549 81.3655 38.0775 85.0208 47.56C85.5889 49.0325 87.4767 46.8025 89.0344 46.3851C91.6153 45.6923 94.5259 45.8627 96.806 47.6561C100.674 50.6995 99.1979 54.6765 101.809 54.2035C104.836 53.6551 108.363 54.8531 110.12 57.2413C112.318 60.2295 112.89 61.9604 112.041 65.9473C112.041 65.9473 115.445 67.309 116.268 69.7079C110.666 73.0781 103.689 76.1423 103.689 76.1423L72.9015 78.0896L42.1134 76.1423Z" fill="#963328"/>
<path fill-rule="evenodd" clip-rule="evenodd" d="M42.1134 76.1422C42.1134 76.1422 36.6635 73.7485 31.5299 70.8656C33.3921 69.2067 35.8191 67.7843 35.8191 67.7843C33.486 60.4824 38.3038 55.9063 45.5373 57.2168C48.1478 57.6899 45.1282 54.3742 48.9963 51.3312C51.2764 49.5373 55.2892 48.9265 57.8705 49.6185C59.4281 50.0363 61.3167 52.2663 61.884 50.7938C65.7024 40.8884 81.3655 41.7526 85.0208 51.2347C85.5889 52.7072 87.4767 50.4772 89.0344 50.0597C91.6153 49.3673 94.5259 49.537 96.806 51.3312C100.674 54.3742 97.0666 58.1311 99.6771 57.6581C109.224 55.9278 110.834 60.4232 109.175 68.2251C109.175 68.2251 112.559 68.6828 114.681 70.6346C109.433 73.6195 103.689 76.1419 103.689 76.1419L72.9011 78.0893L42.1134 76.1422Z" fill="#C8443E"/>
<path fill-rule="evenodd" clip-rule="evenodd" d="M39.1168 63.8998C40.9991 65.0433 44.2958 68.1605 48.0816 69.8655C52.153 71.6995 58.3545 73.2601 57.4983 73.2609C47.0175 73.2682 40.2307 69.6845 37.7584 67.0217C35.3208 64.3958 37.111 62.6813 39.1168 63.8998Z" fill="#D17A71"/>
<path fill-rule="evenodd" clip-rule="evenodd" d="M51.6799 53.7129C52.9415 55.4917 54.7119 59.6212 57.4822 62.6587C60.4612 65.9257 65.4841 69.7817 64.7058 69.4454C55.178 65.3324 50.4184 59.408 49.2186 56.0159C48.0349 52.6714 50.3357 51.817 51.6799 53.7129Z" fill="#D17A71"/>
<path fill-rule="evenodd" clip-rule="evenodd" d="M67.4468 49.1188C67.8117 51.269 67.6154 55.7578 68.7932 59.6961C70.0603 63.9319 72.9128 69.5851 72.3571 68.9446C65.5572 61.1054 63.8391 53.7026 64.2299 50.1259C64.6148 46.5993 67.0582 46.8278 67.4468 49.1188Z" fill="#D17A71"/>
<path fill-rule="evenodd" clip-rule="evenodd" d="M106.768 63.8998C104.886 65.0433 101.589 68.1605 97.8043 69.8655C93.7326 71.6995 87.5312 73.2601 88.3873 73.2609C98.8678 73.2682 105.655 69.6845 108.127 67.0217C110.565 64.3958 108.775 62.6813 106.768 63.8998Z" fill="#D17A71"/>
<path fill-rule="evenodd" clip-rule="evenodd" d="M94.2057 53.7129C92.9445 55.4917 91.1736 59.6212 88.4037 62.6587C85.4247 65.9257 80.4018 69.7817 81.1801 69.4454C90.7079 65.3324 95.4672 59.408 96.6674 56.0159C97.8507 52.6714 95.5499 51.817 94.2057 53.7129Z" fill="#D17A71"/>
<path fill-rule="evenodd" clip-rule="evenodd" d="M78.4384 49.1188C78.0739 51.269 78.2698 55.7578 77.0916 59.6961C75.8246 63.9319 72.9724 69.5851 73.5281 68.9446C80.3284 61.1054 82.0462 53.7026 81.6554 50.1259C81.2708 46.5993 78.827 46.8278 78.4384 49.1188Z" fill="#D17A71"/>
<path fill-rule="evenodd" clip-rule="evenodd" d="M42.7733 49.9281C46.5393 57.0816 50.2959 61.5166 56.4619 66.7665C60.2426 69.985 62.7541 71.4023 67.2491 73.5219L65.362 73.127C61.1024 71.8786 55.2183 67.6271 52.0583 64.5245C48.0034 60.5428 44.1628 55.5041 42.7733 49.9281Z" fill="#000100"/>
<path fill-rule="evenodd" clip-rule="evenodd" d="M59.5316 42.8719C60.863 46.2202 61.8709 50.2593 63.1807 53.8189C65.305 59.5908 67.5262 65.3719 70.9713 70.4993L71.6589 71.5376C65.7155 66.7296 60.028 50.6955 59.5316 42.8719Z" fill="#000100"/>
<path fill-rule="evenodd" clip-rule="evenodd" d="M102.971 49.9281C101.581 55.5041 97.7404 60.5427 93.6862 64.5241C90.5259 67.6267 84.6417 71.8783 80.3817 73.1267L78.4951 73.5215C82.9901 71.4019 85.5015 69.9854 89.2819 66.7662C95.4479 61.517 99.2048 57.0812 102.971 49.9281Z" fill="#000100"/>
<path fill-rule="evenodd" clip-rule="evenodd" d="M86.2125 42.8719C85.7165 50.6951 80.0286 66.73 74.0848 71.5376L74.7725 70.4993C78.2176 65.3719 80.4391 59.5908 82.5631 53.8189C83.8736 50.2586 84.8811 46.2205 86.2125 42.8719Z" fill="#000100"/>
<path fill-rule="evenodd" clip-rule="evenodd" d="M31.0316 62.4964C36.1367 68.4112 39.5182 70.4054 46.8084 72.6653C53.3195 74.6833 57.4903 75.0927 64.1158 76.0542L66.0913 76.3879C54.7295 76.9487 36.7377 73.8728 31.0316 62.4964Z" fill="#000100"/>
<path fill-rule="evenodd" clip-rule="evenodd" d="M114.713 62.4964C109.007 73.8725 91.0143 76.9483 79.6528 76.3883L81.628 76.0545C88.2539 75.0927 92.4246 74.6836 98.9354 72.6657C106.225 70.4054 109.607 68.4112 114.713 62.4964Z" fill="#000100"/>
<path fill-rule="evenodd" clip-rule="evenodd" d="M28.4507 69.0411C27.7587 68.6039 27.0981 68.1652 26.4872 67.7302C26.8663 64.7406 31.1577 63.0235 31.1577 63.0235C30.2533 58.7712 30.8627 56.9247 33.2067 53.7388C35.081 51.1915 38.843 49.9139 42.071 50.4992C44.8552 51.0036 43.281 46.762 47.4064 43.5161C49.8378 41.6034 52.9422 41.4218 55.695 42.1602C57.3561 42.6058 59.37 44.9842 59.9754 43.4137C64.0478 32.8496 81.9285 33.3007 85.8272 43.4137C86.4322 44.9842 88.4465 42.6062 90.1077 42.1602C92.8604 41.4218 95.9648 41.6034 98.3962 43.5161C102.522 46.7616 100.947 51.0036 103.732 50.4992C106.96 49.9139 110.722 51.1919 112.596 53.7388C114.94 56.9251 115.55 58.7716 114.645 63.0235C114.645 63.0235 118.936 64.7406 119.315 67.7302C118.705 68.1652 118.044 68.6039 117.352 69.0411C117.129 68.4949 116.809 67.9945 116.429 67.5415C115.692 66.6624 114.567 65.8197 113.453 65.2286C114.059 61.6654 113.431 59.6314 111.127 56.5007C109.039 53.6624 104.998 52.3555 101.586 52.9737C101.548 52.981 101.474 52.9923 101.419 52.9931C101.209 52.6929 100.738 51.1831 100.618 50.8717C99.9626 49.1656 99.0264 47.8126 97.5791 46.6739C95.0494 44.6837 91.741 44.3649 88.7108 45.1776C88.0981 45.3417 87.5253 45.6674 86.9901 46.0008C86.8037 46.1167 86.3482 46.4256 85.9888 46.6282C81.5994 36.6295 64.2876 36.3923 59.8134 46.6278C59.4541 46.4256 58.9986 46.1167 58.8122 46.0008C58.2773 45.6674 57.7041 45.3417 57.0918 45.1776C54.0616 44.3646 50.7532 44.6837 48.2231 46.6739C46.7762 47.8126 45.8396 49.1656 45.1838 50.8717C45.0643 51.1831 44.5934 52.6926 44.3836 52.9931C44.3284 52.9923 44.2545 52.9806 44.2161 52.9737C40.8043 52.3555 36.763 53.6624 34.6748 56.5007C32.3721 59.631 31.7437 61.6639 32.3487 65.2249C30.8166 66.0303 29.2637 67.3123 28.5625 68.7863C28.5238 68.8704 28.4861 68.9548 28.4507 69.0411Z" fill="white"/>
<path fill-rule="evenodd" clip-rule="evenodd" d="M42.6325 38.9721C45.0613 40.3389 49.5907 39.7193 52.7269 38.3751C55.2673 37.2864 56.9664 37.9894 57.7473 38.4983C57.646 37.6951 57.5912 36.8902 57.6153 36.1433C56.6528 35.7715 55.3627 34.6313 54.225 34.3261C51.2369 33.5244 47.8678 33.7214 45.228 35.7978C43.9339 36.8159 43.1567 37.9243 42.6325 38.9721Z" fill="#6C6C76"/>
<path fill-rule="evenodd" clip-rule="evenodd" d="M60.6729 32.5538C61.7985 34.6851 63.7963 34.4866 68.6028 33.3774C75.2912 31.834 76.982 32.2749 81.3183 34.333C83.3947 35.3182 85.2014 35.3095 86.4882 34.6781C81.9628 25.5674 66.8448 24.8593 60.6729 32.5538Z" fill="#6C6C76"/>
<path fill-rule="evenodd" clip-rule="evenodd" d="M90.1091 35.028C90.1424 37.5697 92.9748 38.1667 96.3124 38.8898C100.723 39.8454 101.678 43.2265 102.633 43.3735C103.276 43.4726 103.752 43.8367 104.24 43.3289C104.302 42.9114 104.347 42.5002 104.368 42.1021L104.367 42.1017C103.748 40.5703 103.345 37.9774 100.575 35.7982C97.9359 33.7218 94.5665 33.5247 91.5787 34.3264C91.1042 34.4537 90.6026 34.7267 90.1091 35.028Z" fill="#6C6C76"/>
<path fill-rule="evenodd" clip-rule="evenodd" d="M107.402 43.2492C107.837 46.5558 109.335 46.5872 112.556 48.445C116.37 50.645 117.768 54.5273 118.505 55.3484C118.999 51.8305 118.214 49.9179 115.989 46.8939C114.152 44.3978 110.645 43.0247 107.402 43.2492Z" fill="#6C6C76"/>
<path fill-rule="evenodd" clip-rule="evenodd" d="M119.96 57.8865C119.154 60.8462 120.937 63.8204 122.32 65.1215C122.654 64.7223 122.898 64.3392 123.035 63.9791C124.129 61.1083 121.75 59.0044 119.96 57.8865Z" fill="#6C6C76"/>
<path fill-rule="evenodd" clip-rule="evenodd" d="M31.5584 51.238C34.2361 47.776 39.8739 46.8102 41.0968 46.638C40.9096 46.0352 40.7546 45.4156 40.6405 44.7923C40.551 44.3035 40.4866 43.8122 40.4519 43.3242C40.185 43.4302 39.8567 43.4539 39.4363 43.3775C35.9324 42.7425 31.8486 44.1295 29.8146 46.8943C28.3096 48.9396 27.4633 50.4765 27.2264 52.3456C27.3163 52.4388 27.3613 52.5723 27.3361 52.709C27.3218 52.7858 27.3083 52.8622 27.2959 52.9382C28.6795 53.2208 30.2504 52.9287 31.5584 51.238Z" fill="#6C6C76"/>
<path fill-rule="evenodd" clip-rule="evenodd" d="M25.7517 63.5861C26.9928 61.5386 27.2385 59.7535 26.7102 57.3901C24.9953 58.2887 21.4822 60.6042 22.7676 63.9791C22.9862 64.5527 23.4764 65.1836 24.1633 65.8471C24.6477 65.2487 25.2048 64.4887 25.7517 63.5861Z" fill="#6C6C76"/>
<path fill-rule="evenodd" clip-rule="evenodd" d="M68.548 73.8099C73.0313 75.1201 77.1337 75.3256 81.7281 74.6091C85.3001 74.0523 88.8794 72.9541 92.4853 72.7593C95.7857 72.5805 98.6981 73.2188 101.628 74.7622C105.75 76.9344 109.386 80.6351 112.365 84.1577C113.331 85.2993 114.066 86.7587 113.546 88.2703C113.002 89.8492 111.318 90.7865 109.927 91.5217C109.273 91.8671 107.71 92.6111 107.281 93.1894C104.321 97.181 98.7713 98.4543 94.1121 99.0425C90.9463 99.4417 87.7187 99.5766 84.5302 99.6435C80.8522 99.7206 77.1691 99.6987 73.4901 99.6987C68.5012 99.6987 63.4783 99.3675 58.5435 98.6247C54.406 98.0028 50.2038 97.0801 46.2571 95.6767C41.7976 94.0916 34.3191 90.6235 34.3191 84.9652C34.3191 81.7161 37.8732 79.1395 40.1642 77.3026C48.2535 70.8148 59.0461 71.0334 68.548 73.8099Z" fill="#000100"/>
<path fill-rule="evenodd" clip-rule="evenodd" d="M68.1974 75.0097C55.0801 71.1771 46.2407 74.0315 40.9454 78.2775C38.3203 80.3825 35.5679 82.4973 35.5679 84.9652C35.5679 92.4115 52.5456 98.4481 73.489 98.4481C89.0055 98.4481 101.618 98.7263 106.276 92.4447C107.906 90.2477 115.148 89.3849 111.41 84.9652C93.5498 63.8471 87.8178 80.7429 68.1974 75.0097Z" fill="#9F7F6F"/>
<path fill-rule="evenodd" clip-rule="evenodd" d="M38.7403 80.0849C36.9775 81.6144 35.5683 83.1995 35.5683 84.9652C35.5683 92.4115 52.546 98.4481 73.4893 98.4481C89.0058 98.4481 101.618 98.7263 106.277 92.4447C107.906 90.2477 115.148 89.3849 111.41 84.9652C109.862 83.1345 108.407 81.5958 107.024 80.2969C105.281 82.7978 101.576 85.7329 96.3121 84.6801C88.2268 83.0628 81.6119 90.3398 79.848 90.0459C78.0841 89.7516 82.1262 83.7979 82.1262 83.7979L63.751 85.1944C63.751 85.1944 68.3081 90.1925 66.397 89.7516C64.4858 89.3107 55.6657 83.7245 49.3447 84.0184C44.9732 84.2216 39.2675 82.8775 38.7403 80.0849Z" fill="#876E61"/>
<path fill-rule="evenodd" clip-rule="evenodd" d="M55.4043 112.509C53.4295 112.71 50.3639 111.523 49.2222 111.08C45.1816 109.508 41.0061 106.396 38.0966 103.225C33.6374 98.3651 31.0791 92.452 31.0791 85.806C31.0791 85.2971 31.3646 84.8621 31.8315 84.6596C32.2983 84.4567 32.8112 84.5452 33.183 84.8928C36.1718 87.6868 40.3397 88.4132 44.294 88.3054C46.0451 88.2571 47.7815 88.0469 49.5074 87.757C50.1552 87.6485 50.8 87.5271 51.4463 87.4097C51.8934 87.329 52.3734 87.2354 52.8264 87.205C55.2654 87.0424 57.9502 88.5909 60.0569 89.7165C63.1043 90.985 66.1849 92.0141 69.3869 92.8264C70.5366 93.1185 71.7163 93.2628 72.9019 93.2859C74.0867 93.2628 75.2667 93.1185 76.4164 92.8264C79.6188 92.0141 82.6987 90.985 85.7461 89.7165C87.8528 88.5909 90.5379 87.0424 92.977 87.205C93.4296 87.2354 93.9096 87.329 94.3563 87.4097C95.0026 87.5271 95.6475 87.6485 96.2956 87.757C98.0218 88.0469 99.7583 88.2571 101.509 88.3054C105.463 88.4132 109.632 87.6872 112.62 84.8928C112.992 84.5455 113.504 84.4571 113.972 84.6596C114.438 84.8621 114.724 85.2971 114.724 85.806C114.724 92.4524 112.166 98.3651 107.706 103.225C104.797 106.397 100.621 109.508 96.5804 111.08C95.4391 111.523 92.3735 112.71 90.3983 112.509C83.8152 119.654 61.9878 119.654 55.4043 112.509Z" fill="#000100"/>
<path fill-rule="evenodd" clip-rule="evenodd" d="M32.329 85.8057C32.329 99.918 44.3832 107.856 49.6752 109.914C54.9675 111.972 55.8492 111.09 55.8492 111.09C61.3079 118.446 84.4955 118.446 89.9538 111.09C89.9538 111.09 90.8359 111.972 96.1282 109.914C101.42 107.856 113.474 99.9177 113.474 85.8057C106.712 92.1267 95.0988 88.599 92.894 88.452C90.7847 88.3113 88.1329 89.8602 86.2824 90.8472C83.8985 91.8419 80.8032 93.003 76.7239 94.0379C75.4539 94.3603 74.1718 94.5124 72.9019 94.5354C71.6315 94.512 70.3495 94.3603 69.0795 94.0379C65.0001 93.003 61.9049 91.8416 59.521 90.8472C57.6705 89.8602 55.0187 88.3116 52.9093 88.452C50.7042 88.599 39.0912 92.1267 32.329 85.8057Z" fill="#6C6C76"/>
<path fill-rule="evenodd" clip-rule="evenodd" d="M38.0688 84.0195C38.2881 84.3394 38.6617 84.7166 38.9231 84.9437C39.8992 85.7907 41.0968 86.2853 42.3686 86.4812C43.1242 86.5975 43.8784 86.6183 44.6409 86.5777C46.0634 86.5013 47.4935 86.2334 48.9071 86.0532C50.785 85.8141 52.592 85.7252 54.4835 85.8832C55.9311 86.0038 57.2388 86.3756 58.5526 86.9861C60.1633 87.7344 61.6545 88.7525 63.2366 89.5703C65.3737 90.675 67.5127 91.3616 69.8837 91.7779C71.0682 91.9856 72.2709 92.0836 73.4736 92.0678C73.4849 92.0678 73.4948 92.0678 73.5062 92.0678C74.7085 92.0836 75.9112 91.9856 77.0957 91.7779C79.4664 91.3616 81.606 90.675 83.7431 89.5703C85.3249 88.7525 86.8165 87.7344 88.4272 86.9861C89.7414 86.3756 91.049 86.0042 92.4967 85.8832C94.3881 85.7252 96.1944 85.8141 98.0726 86.0532C99.4867 86.2334 100.916 86.5017 102.339 86.5777C103.101 86.6183 103.856 86.5978 104.612 86.4812C105.883 86.2853 107.081 85.7907 108.057 84.9437C108.318 84.7166 108.692 84.3394 108.911 84.0195C109.718 81.5662 104.909 78.8226 105.697 77.8769C106.539 76.8668 109.695 77.6711 110.781 78.0516C112.004 78.4801 113.228 79.2291 114.207 80.0754C115.723 81.3867 116.992 83.2544 116.776 85.3465C116.345 89.5107 112.657 91.9498 108.865 92.7843C106.284 93.3528 102.58 93.68 100.083 92.7032C98.379 92.0364 96.2452 91.2508 94.383 91.5162C93.2461 91.6778 92.1318 92.2038 91.1188 92.7237C89.3418 93.635 87.6035 94.6498 85.8342 95.5846C82.0374 97.5897 77.8831 99.5082 73.4897 99.313C69.0963 99.5082 64.9424 97.5897 61.1456 95.5846C59.3762 94.6495 57.638 93.635 55.8609 92.7237C54.848 92.2038 53.7337 91.6781 52.5964 91.5162C50.7342 91.2508 48.6008 92.0364 46.8969 92.7032C44.3993 93.68 40.6961 93.3524 38.1145 92.7843C34.3224 91.9501 30.6346 89.5107 30.2036 85.3465C30.1681 85.0036 30.1725 84.6581 30.2138 84.3167C30.4207 82.6249 31.5167 81.1619 32.7728 80.0754C33.7514 79.2291 34.9753 78.4801 36.1993 78.0516C37.285 77.6711 39.4119 77.198 40.2534 78.2081C40.6087 78.634 38.2241 80.5378 37.6743 82.146C37.4532 82.7927 37.9821 83.5505 38.0688 84.0195Z" fill="#000100"/>
<path fill-rule="evenodd" clip-rule="evenodd" d="M36.8858 84.483C36.7607 83.8996 35.9485 83.0113 36.3056 81.6634C36.5856 80.6047 38.0651 78.9677 37.9346 78.9659C35.9148 78.9443 31.104 81.9032 31.4469 85.2182C31.7386 88.0411 34.0778 90.6162 38.3828 91.5633C40.5787 92.0466 44.1565 92.4327 46.441 91.5392C53.2029 88.8932 53.938 90.3628 61.729 94.4791C66.8181 97.1679 70.151 98.2251 73.4893 98.062C76.8277 98.2251 80.1606 97.1682 85.2496 94.4791C93.041 90.3628 93.7758 88.8932 100.538 91.5392C102.822 92.4327 106.4 92.047 108.596 91.5633C112.901 90.6158 115.24 88.0407 115.532 85.2182C115.945 81.2288 108.89 77.754 108.224 79.3728C107.816 80.3635 111.201 79.315 110.093 84.4834C110.093 84.4834 108.623 87.129 104.801 87.7176C100.979 88.3054 97.8913 86.6885 92.5997 87.1294C87.3074 87.5706 85.6905 91.5396 77.3117 93.0099C75.988 93.242 74.7118 93.3349 73.4893 93.3184C72.2665 93.3349 70.9907 93.242 69.6673 93.0099C61.2881 91.5399 59.6712 87.5706 54.3793 87.1294C49.087 86.6885 46.0001 88.3058 42.1781 87.7176C38.3561 87.1286 36.8858 84.483 36.8858 84.483Z" fill="white"/>
<path fill-rule="evenodd" clip-rule="evenodd" d="M98.2664 90.9784C98.3274 91.0618 98.3611 91.215 98.3706 91.4274L101.365 92.168C99.2337 92.6089 98.9398 94.0053 97.6164 96.9456C97.3093 97.6281 97.022 98.247 96.7621 98.7888C96.3954 99.9692 95.9999 101.12 95.6135 102.106C93.2599 108.114 90.2667 114.229 83.1981 115.785C86.6278 114.357 89.4818 111.138 90.6626 109.384C94.2433 104.064 95.9644 99.3653 98.05 91.7699C97.9897 91.0753 97.8003 91.2859 97.8003 91.2859L98.1582 91.3744C98.1944 91.2431 98.2302 91.1115 98.2664 90.9784ZM42.5279 93.0132C44.6592 93.4541 44.9535 94.8505 46.2765 97.7904C46.9425 99.2706 47.515 100.452 47.9201 101.196C51.0376 107.904 55.9757 113.028 61.8248 115.057L63.6106 115.527C60.5493 113.942 58.6374 112.945 56.0645 110.547C50.894 105.726 48.4882 100.697 46.1244 94.3789C46.0622 94.2123 45.9449 93.7893 45.8276 93.3641C45.791 91.7958 46.0922 92.1307 46.0922 92.1307L42.5279 93.0132Z" fill="#000100"/>
<path fill-rule="evenodd" clip-rule="evenodd" d="M105.158 86.3573C107.651 86.1277 110.409 85.1239 111.712 82.7996C112.097 82.112 112.01 81.7307 111.924 81.0321C112.751 81.8948 112.11 83.2412 111.526 84.0443C109.968 86.1858 107.66 87.031 105.166 87.3929C104.88 87.3955 104.646 87.1652 104.644 86.8793C104.642 86.5931 104.872 86.3595 105.158 86.3573Z" fill="#000100"/>
<path fill-rule="evenodd" clip-rule="evenodd" d="M93.642 74.8277C90.4253 75.1216 91.2555 74.9194 91.5937 77.3296C91.7538 78.4695 92.3033 77.0818 96.1329 77.413C99.9634 77.7442 106.058 81.6378 105.899 80.4976C105.739 79.3571 98.8685 74.3502 93.642 74.8277Z" fill="#B8A188"/>
<path fill-rule="evenodd" clip-rule="evenodd" d="M52.973 74.0929C56.1907 74.3868 55.3605 74.1843 55.0216 76.5945C54.8615 77.7343 54.312 76.3466 50.4809 76.6778C46.6497 77.0086 40.5517 80.9027 40.7118 79.7625C40.8727 78.6223 47.7446 73.6154 52.973 74.0929Z" fill="#B8A188"/>
<path fill-rule="evenodd" clip-rule="evenodd" d="M40.6248 93.1963C42.0534 99.0403 46.4735 104.246 46.993 106.584C47.1615 107.342 47.004 107.967 46.6936 108.474C47.8089 109.105 48.8285 109.585 49.6748 109.914C53.0409 111.223 54.6227 111.342 55.3283 111.256C52.3317 108.696 49.7962 105.233 47.9197 101.196C47.515 100.452 46.9422 99.2702 46.2761 97.7904C45.8181 96.7727 45.4832 95.9395 45.1527 95.2676C44.6888 94.3234 44.2333 93.6961 43.4572 93.3177C42.555 93.3473 41.6297 93.302 40.7389 93.2084C40.7012 93.2047 40.6628 93.2007 40.6248 93.1963Z" fill="#4A4B52"/>
<path fill-rule="evenodd" clip-rule="evenodd" d="M65.7422 99.4216C66.9413 104.651 66.3067 109.698 65.0743 112.611C64.6104 113.707 63.9049 114.585 63.1343 115.281C63.2315 115.331 63.3299 115.382 63.4297 115.434C65.853 116.095 68.5867 116.477 71.3683 116.579C72.3638 115.788 72.4979 113.967 72.491 113.079C72.4811 111.885 72.9596 110.617 72.9962 109.154C73.0485 107.093 72.6771 104.775 72.7933 102.862C72.7143 101.732 72.5802 100.482 71.8743 99.6863C71.7248 99.5177 71.5493 99.3697 71.3431 99.2476C69.8742 99.0959 68.4361 98.7376 67.0323 98.2532C66.4277 98.0449 65.8289 97.8124 65.2378 97.563C65.2981 97.7557 65.3562 97.9484 65.4118 98.1414C65.535 98.5684 65.6446 98.9957 65.7422 99.4216Z" fill="#4A4B52"/>
<path fill-rule="evenodd" clip-rule="evenodd" d="M80.5097 114.816C78.0757 111.165 78.362 105.902 80.2841 99.695C80.4124 99.2812 80.5473 98.8637 80.6899 98.4415C80.7488 98.2664 80.8087 98.0913 80.8698 97.9151C80.3715 98.1077 79.8685 98.2869 79.3607 98.4473C77.9094 98.9076 76.4226 99.2224 74.9044 99.3057C74.8503 99.3298 74.7948 99.3551 74.7399 99.3806C74.5791 99.4552 74.4332 99.5627 74.3009 99.6991C73.928 100.081 73.6608 100.683 73.4699 101.372C73.5906 103.554 73.2499 106.312 73.2144 108.887C73.1936 110.367 73.539 111.787 73.4513 113.002C73.391 113.847 73.3683 115.403 74.1653 116.588C76.5838 116.515 78.9725 116.231 81.1593 115.737C80.9421 115.446 80.725 115.139 80.5097 114.816Z" fill="#4A4B52"/>
<path fill-rule="evenodd" clip-rule="evenodd" d="M99.4706 108.266C98.9635 106.325 99.8745 102.307 102.094 97.0838C102.338 96.5095 102.597 95.9213 102.873 95.3188C103.17 94.6696 103.486 94.0039 103.819 93.325C102.473 93.3045 101.165 93.1261 100.083 92.7032C100.074 92.6995 100.066 92.6962 100.058 92.6933C99.0206 93.4117 98.6064 94.7471 97.6168 96.9456C97.5777 97.0333 97.5382 97.1203 97.4998 97.2059C97.2677 97.7169 97.0483 98.1896 96.8443 98.6181C96.8169 98.6758 96.7895 98.7325 96.7625 98.7888C96.3958 99.9692 96.0002 101.12 95.6138 102.106C94.1706 105.791 92.4034 108.853 90.4184 111.249C91.0951 111.349 92.6696 111.259 96.1282 109.914C97.0651 109.55 98.2138 109.001 99.4706 108.266Z" fill="#4A4B52"/>
<path fill-rule="evenodd" clip-rule="evenodd" d="M58.5157 111.759C54.0568 108.63 49.4613 101.671 47.991 96.9193C46.7941 93.0486 51.2157 93.0688 51.5841 94.8052C53.6441 104.514 64.3556 115.858 58.5157 111.759Z" fill="#8B8B93"/>
<path fill-rule="evenodd" clip-rule="evenodd" d="M86.5109 111.759C90.6385 108.63 94.4985 101.671 95.4662 96.9193C96.254 93.0486 91.8342 93.0688 91.6496 94.8052C90.6162 104.514 81.1041 115.858 86.5109 111.759Z" fill="#8B8B93"/>
<path fill-rule="evenodd" clip-rule="evenodd" d="M43.0635 105.272C40.2008 103.666 36.0676 98.0079 34.8982 95.2472C33.9459 92.9997 37.4071 94.5076 37.7328 95.5261C39.5566 101.223 46.8135 107.376 43.0635 105.272Z" fill="#8B8B93"/>
<path fill-rule="evenodd" clip-rule="evenodd" d="M102.075 105.272C104.938 103.666 109.071 98.0079 110.24 95.2472C111.192 92.9997 107.732 94.5076 107.405 95.5261C105.582 101.223 98.3245 107.376 102.075 105.272Z" fill="#8B8B93"/>
<path fill-rule="evenodd" clip-rule="evenodd" d="M73.4893 95.9301C70.151 96.0935 66.8181 95.0362 61.729 92.3471C58.383 90.5796 56.3387 89.3001 54.5591 88.6246C52.1954 87.7278 50.2992 87.8978 46.441 89.4072C46.4205 89.4149 46.4 89.4233 46.3792 89.4306C44.0929 90.2937 40.5594 89.9106 38.3828 89.4314C38.0706 89.3626 37.769 89.2859 37.4776 89.2007C36.6452 88.9569 35.8977 88.6479 35.2352 88.2857C34.1265 87.6796 33.2564 86.9236 32.6291 86.0765C32.2957 85.6265 32.0303 85.1509 31.834 84.6578C31.7305 84.3971 31.6465 84.1325 31.5814 83.8638C31.4783 84.2125 31.4246 84.5697 31.4301 84.932C31.4315 85.0266 31.4374 85.1217 31.4472 85.2175C31.5448 86.1592 31.8698 87.0738 32.4204 87.9091C33.4926 89.537 35.4184 90.8659 38.1759 91.5155C38.2446 91.5316 38.3137 91.5473 38.3831 91.5626C39.1596 91.7337 40.1083 91.8924 41.1117 91.9863C42.9469 92.1592 44.9645 92.1157 46.4414 91.5381C53.2033 88.8921 53.9384 90.3617 61.7294 94.478C66.8184 97.1668 70.1513 98.224 73.4897 98.061C76.8281 98.224 80.1609 97.1671 85.25 94.478C93.0413 90.3617 93.7761 88.8921 100.538 91.5381C102.284 92.2214 104.787 92.1567 106.85 91.8723C107.485 91.7849 108.079 91.6763 108.597 91.5623C109.873 91.2815 110.977 90.8574 111.905 90.3259C112.384 90.0521 112.816 89.7501 113.202 89.4241C113.795 88.9221 114.278 88.3643 114.649 87.7684C115.145 86.9711 115.44 86.1065 115.532 85.2171C115.58 84.7565 115.528 84.3032 115.398 83.8634C115.257 84.4479 115.024 85.0153 114.7 85.553C114.429 86.0056 114.093 86.4374 113.693 86.8399C113.611 86.9217 113.528 87.0025 113.441 87.0819C113.112 87.3845 112.745 87.6686 112.339 87.9307C111.326 88.5862 110.078 89.1049 108.597 89.431C106.511 89.8901 103.179 90.2612 100.893 89.5319C100.772 89.4935 100.654 89.4515 100.538 89.4065C96.9496 88.002 95.0585 87.7571 92.9086 88.452C91.0088 89.0665 88.9064 90.4155 85.2504 92.3464C80.1606 95.0362 76.8277 96.0938 73.4893 95.9301Z" fill="#C5C5C5"/>
<path fill-rule="evenodd" clip-rule="evenodd" d="M73.2023 98.3285L73.2067 98.3585C75.2327 98.2211 77.7734 98.3443 78.011 98.3146C78.2483 98.2847 76.945 98.4616 74.9604 99.3803C73.7569 99.9374 73.0956 110.218 73.9368 114.962C74.2014 116.456 76.3287 116.501 76.8829 116.564C77.6517 116.652 72.9227 117.119 72.7615 117.659C72.6851 117.198 68.0164 116.417 68.6872 116.426C69.8808 116.441 71.5902 116.471 71.8669 115.491C73.1314 111.021 73.0561 99.612 70.3294 98.8656C70.4142 98.4843 71.9327 98.4459 73.1976 98.3589L73.2023 98.3285Z" fill="#000100"/>
<path fill-rule="evenodd" clip-rule="evenodd" d="M41.8257 87.3929C39.3325 87.031 37.0243 86.1858 35.4666 84.0443C34.8821 83.2412 34.2413 81.8948 35.0674 81.0321C34.9826 81.7307 34.8953 82.1116 35.2806 82.7996C36.5824 85.1239 39.3413 86.1277 41.8337 86.3573C42.12 86.3595 42.3496 86.5935 42.3477 86.8793C42.3452 87.1652 42.1112 87.3955 41.8257 87.3929Z" fill="#000100"/>
<path fill-rule="evenodd" clip-rule="evenodd" d="M73.4893 61.9173C77.1428 61.9173 80.8208 62.8627 83.9237 64.8163C86.713 66.5724 88.9974 69.1387 90.0316 72.3038C90.418 73.4846 90.6158 74.7144 90.6158 75.9566C90.6158 77.1991 90.418 78.4282 90.0316 79.6097C88.9974 82.7747 86.713 85.341 83.9237 87.0969C80.8208 89.0505 77.1428 89.9954 73.4893 89.9954C69.8358 89.9954 66.1579 89.0505 63.0549 87.0969C60.2657 85.3407 57.9809 82.7747 56.947 79.6097C56.5606 78.4282 56.3629 77.1991 56.3629 75.9566C56.3629 74.7144 56.5606 73.4846 56.947 72.3038C57.9812 69.1387 60.266 66.5721 63.0549 64.8163C66.1582 62.8627 69.8362 61.9173 73.4893 61.9173Z" fill="#000100"/>
<path d="M73.4893 88.7459C82.2575 88.7459 89.3656 83.0201 89.3656 75.9569C89.3656 68.8937 82.2575 63.1679 73.4893 63.1679C64.7211 63.1679 57.6131 68.8937 57.6131 75.9569C57.6131 83.0201 64.7211 88.7459 73.4893 88.7459Z" fill="#A0C1D6"/>
<path fill-rule="evenodd" clip-rule="evenodd" d="M57.6544 76.8752C58.2393 83.5095 65.1047 88.7459 73.4893 88.7459C81.874 88.7459 88.7393 83.5099 89.3246 76.8752C88.739 70.2413 81.8736 65.0049 73.4893 65.0049C65.1047 65.0052 58.2389 70.2413 57.6544 76.8752Z" fill="#7FA9C6"/>
<path fill-rule="evenodd" clip-rule="evenodd" d="M57.7363 74.3601C57.6551 74.8832 57.6131 75.4159 57.6131 75.9565C57.6131 83.0197 64.7212 88.7455 73.4893 88.7455C82.2575 88.7455 89.3656 83.0197 89.3656 75.9565C89.3656 75.5471 89.3411 75.1417 89.2943 74.7425C84.7623 75.3757 80.4347 79.2134 79.5724 81.5464C78.3229 84.9276 70.5315 88.4557 66.5626 80.8113C64.0738 76.0194 60.6608 74.3758 57.7363 74.3601Z" fill="#6997B7"/>
<path fill-rule="evenodd" clip-rule="evenodd" d="M78.0849 67.4929C76.839 67.868 76.1382 69.1914 76.5192 70.4478C76.9005 71.7046 78.2191 72.4189 79.4653 72.0431C80.7111 71.6677 81.4119 70.3444 81.0306 69.0879C80.6493 67.8314 79.3307 67.1175 78.0849 67.4929Z" fill="#000100"/>
<path fill-rule="evenodd" clip-rule="evenodd" d="M67.1266 67.3924C65.8808 67.7678 65.18 69.0908 65.5609 70.3473C65.9418 71.6041 67.2608 72.3184 68.5066 71.9426C69.7525 71.5672 70.4536 70.2442 70.0724 68.9877C69.6914 67.7313 68.3725 67.0173 67.1266 67.3924Z" fill="#000100"/>
<path fill-rule="evenodd" clip-rule="evenodd" d="M67.5799 73.0254C69.5178 74.7165 74.7823 74.7275 76.8997 74.0629C79.0171 73.3976 79.0171 73.3976 79.0171 73.3976C79.0171 73.3976 79.6769 81.6396 73.2634 81.6108C66.8495 81.5815 67.5799 73.0254 67.5799 73.0254Z" fill="#000100"/>
<path fill-rule="evenodd" clip-rule="evenodd" d="M77.2203 78.7846C76.4278 79.9511 75.1914 80.8113 73.2667 80.8018C71.3972 80.7926 70.1835 79.9379 69.3979 78.7718C70.5747 78.1478 71.8977 77.7972 73.297 77.7972C74.7056 77.7972 76.0373 78.1529 77.2203 78.7846Z" fill="#C8443E"/>
<path fill-rule="evenodd" clip-rule="evenodd" d="M64.4927 64.2511C66.367 61.9527 69.3438 60.9763 69.5642 63.4369C69.7847 65.8972 63.8314 65.0699 64.4927 64.2511Z" fill="#000100"/>
<path fill-rule="evenodd" clip-rule="evenodd" d="M62.2876 71.3167C63.6965 70.4185 65.1924 70.4843 66.2303 71.898C66.6379 72.4529 66.5435 72.4124 66.5874 73.0806C64.6411 71.7602 64.5903 71.8432 62.2876 71.3167Z" fill="#A0C1D6"/>
<path fill-rule="evenodd" clip-rule="evenodd" d="M84.3927 71.4659C82.0897 71.992 82.04 71.9093 80.0929 73.2298C80.1368 72.5611 80.0429 72.6017 80.4505 72.0472C81.4883 70.6331 82.9846 70.5673 84.3927 71.4659Z" fill="#A0C1D6"/>
<path fill-rule="evenodd" clip-rule="evenodd" d="M68.8861 67.3346C68.359 67.4936 68.0625 68.0533 68.2237 68.5852C68.3849 69.1168 68.9428 69.4191 69.4699 69.2601C69.9967 69.1014 70.2935 68.5414 70.1323 68.0102C69.9711 67.4779 69.4133 67.1756 68.8861 67.3346Z" fill="white"/>
<path fill-rule="evenodd" clip-rule="evenodd" d="M79.9847 67.3346C79.4576 67.4936 79.1611 68.0533 79.322 68.5852C79.4832 69.1168 80.0414 69.4191 80.5685 69.2601C81.0957 69.1014 81.3922 68.5414 81.2313 68.0102C81.0701 67.4779 80.5119 67.1756 79.9847 67.3346Z" fill="white"/>
<path fill-rule="evenodd" clip-rule="evenodd" d="M68.825 74.6376C73.1482 75.9258 74.9724 75.3471 77.7657 74.8266C77.1523 76.6639 70.2464 76.8646 68.825 74.6376Z" fill="white"/>
<path fill-rule="evenodd" clip-rule="evenodd" d="M81.6857 65.4329C78.7926 63.3488 74.1163 62.6411 71.4959 63.3829C65.8526 64.9804 86.7916 69.1113 81.6857 65.4329Z" fill="white"/>
<path fill-rule="evenodd" clip-rule="evenodd" d="M83.0972 67.1815C82.7159 67.2966 82.5013 67.7009 82.6179 68.0855C82.7342 68.4704 83.1381 68.6887 83.519 68.5739C83.9003 68.4591 84.1149 68.0541 83.9979 67.6695C83.8813 67.2849 83.4781 67.0659 83.0972 67.1815Z" fill="white"/>
<path fill-rule="evenodd" clip-rule="evenodd" d="M81.9778 64.2511C80.1032 61.9527 77.1264 60.9763 76.9059 63.4369C76.6855 65.8972 82.6391 65.0699 81.9778 64.2511Z" fill="#000100"/>
<path fill-rule="evenodd" clip-rule="evenodd" d="M51.1466 63.77C52.8062 63.77 54.1599 62.4163 54.1599 60.7562C54.1599 59.0966 52.8062 57.7429 51.1466 57.7429C49.4869 57.7429 48.1328 59.0966 48.1328 60.7562C48.1328 62.4163 49.4869 63.77 51.1466 63.77Z" fill="#7FA9C6"/>
<path fill-rule="evenodd" clip-rule="evenodd" d="M51.1462 57.3261C52.0934 57.3261 52.9514 57.7103 53.5717 58.3311C54.1925 58.9518 54.5763 59.8091 54.5763 60.7562C54.5763 61.7038 54.1925 62.5611 53.5717 63.1822C52.951 63.8025 52.0934 64.1867 51.1462 64.1867C50.1994 64.1867 49.3418 63.8025 48.7207 63.1822C48.1003 62.5611 47.7161 61.7038 47.7161 60.7562C47.7161 59.8091 48.1003 58.9518 48.7207 58.3311C49.3418 57.7107 50.1994 57.3261 51.1462 57.3261ZM52.9828 58.9204C52.5131 58.4506 51.8634 58.16 51.1466 58.16C50.4297 58.16 49.7804 58.4506 49.3103 58.9204C48.8406 59.3901 48.5499 60.0394 48.5499 60.7562C48.5499 61.4739 48.8406 62.1231 49.3103 62.5929C49.7804 63.0626 50.4297 63.3536 51.1466 63.3536C51.8638 63.3536 52.5131 63.0626 52.9828 62.5929C53.4529 62.1231 53.7436 61.4739 53.7436 60.7562C53.7432 60.0394 53.4526 59.3901 52.9828 58.9204Z" fill="#000100"/>
<path fill-rule="evenodd" clip-rule="evenodd" d="M52.8472 59.6877C52.6067 58.379 51.0406 58.1918 50.1767 58.6579C48.3164 59.661 53.2724 61.9981 52.8472 59.6877Z" fill="white"/>
<path fill-rule="evenodd" clip-rule="evenodd" d="M52.7818 61.9692C53.0552 61.9692 53.2778 61.7466 53.2778 61.4731C53.2778 61.2 53.0552 60.9774 52.7818 60.9774C52.5087 60.9774 52.286 61.2 52.286 61.4731C52.2857 61.7466 52.5087 61.9692 52.7818 61.9692Z" fill="white"/>
<path fill-rule="evenodd" clip-rule="evenodd" d="M56.8611 64.946C57.8631 64.946 58.6805 64.1293 58.6805 63.1269C58.6805 62.1249 57.8635 61.3075 56.8611 61.3075C55.8591 61.3075 55.0421 62.1245 55.0421 63.1269C55.0421 64.129 55.8591 64.946 56.8611 64.946Z" fill="#7FA9C6"/>
<path fill-rule="evenodd" clip-rule="evenodd" d="M56.8611 60.8908C57.4786 60.8908 58.0375 61.1412 58.4422 61.5459C58.8465 61.9506 59.0969 62.5099 59.0969 63.1269C59.0969 63.7444 58.8465 64.3034 58.4422 64.7077C58.0375 65.1124 57.4786 65.3628 56.8611 65.3628C56.2437 65.3628 55.6851 65.1124 55.28 64.7077C54.8754 64.3034 54.625 63.744 54.625 63.1269C54.625 62.5099 54.8754 61.9506 55.28 61.5459C55.6851 61.1412 56.2437 60.8908 56.8611 60.8908ZM57.8529 62.1352C57.5992 61.8815 57.2483 61.7246 56.8611 61.7246C56.474 61.7246 56.123 61.8815 55.8697 62.1352C55.616 62.3885 55.4588 62.7394 55.4588 63.1269C55.4588 63.5145 55.616 63.865 55.8697 64.1184C56.1234 64.3724 56.474 64.5296 56.8611 64.5296C57.2486 64.5296 57.5992 64.3724 57.8529 64.1184C58.1066 63.865 58.2638 63.5145 58.2638 63.1269C58.2638 62.7394 58.1066 62.3889 57.8529 62.1352Z" fill="#000100"/>
<path fill-rule="evenodd" clip-rule="evenodd" d="M57.2289 63.1083C57.502 63.1083 57.7246 62.8857 57.7246 62.6122C57.7246 62.3391 57.502 62.1165 57.2289 62.1165C56.9554 62.1165 56.7328 62.3391 56.7328 62.6122C56.7324 62.8857 56.9554 63.1083 57.2289 63.1083Z" fill="white"/>
<path fill-rule="evenodd" clip-rule="evenodd" d="M56.2916 57.0081C57.9512 57.0081 59.3053 55.6544 59.3053 53.9943C59.3053 52.3347 57.9516 50.981 56.2916 50.981C54.6319 50.981 53.2778 52.3347 53.2778 53.9943C53.2778 55.6544 54.6319 57.0081 56.2916 57.0081Z" fill="#7FA9C6"/>
<path fill-rule="evenodd" clip-rule="evenodd" d="M56.2916 50.5642C57.2388 50.5642 58.0964 50.9481 58.7171 51.5688C59.3378 52.1895 59.7221 53.0471 59.7221 53.994C59.7221 54.9412 59.3382 55.7991 58.7171 56.4199C58.0964 57.0402 57.2388 57.4244 56.2916 57.4244C55.3444 57.4244 54.4868 57.0402 53.866 56.4199C53.2457 55.7991 52.8615 54.9412 52.8615 53.994C52.8615 53.0468 53.2457 52.1895 53.866 51.5688C54.4868 50.9484 55.3444 50.5642 56.2916 50.5642ZM58.1278 52.1584C57.6577 51.6883 57.0084 51.3977 56.2916 51.3977C55.5747 51.3977 54.9251 51.6883 54.4553 52.1584C53.9856 52.6282 53.6946 53.2774 53.6946 53.9943C53.6946 54.7119 53.9856 55.3612 54.4553 55.8306C54.9251 56.3003 55.5747 56.591 56.2916 56.591C57.0084 56.591 57.6577 56.3003 58.1278 55.8306C58.5979 55.3608 58.8886 54.7116 58.8886 53.9943C58.8882 53.2774 58.5976 52.6282 58.1278 52.1584Z" fill="#000100"/>
<path fill-rule="evenodd" clip-rule="evenodd" d="M57.9925 52.9258C57.7516 51.6167 56.1859 51.4299 55.3221 51.896C53.4617 52.8991 58.4173 55.2358 57.9925 52.9258Z" fill="white"/>
<path fill-rule="evenodd" clip-rule="evenodd" d="M57.9271 55.2073C58.2002 55.2073 58.4228 54.9847 58.4228 54.7112C58.4228 54.4381 58.2002 54.2151 57.9271 54.2151C57.6537 54.2151 57.431 54.4381 57.431 54.7112C57.431 54.9847 57.6537 55.2073 57.9271 55.2073Z" fill="white"/>
<path fill-rule="evenodd" clip-rule="evenodd" d="M93.336 64.6525C94.9957 64.6525 96.3494 63.2984 96.3494 61.6387C96.3494 59.979 94.9957 58.625 93.336 58.625C91.676 58.625 90.3223 59.9787 90.3223 61.6387C90.3223 63.2984 91.676 64.6525 93.336 64.6525Z" fill="#7FA9C6"/>
<path fill-rule="evenodd" clip-rule="evenodd" d="M93.336 58.2082C94.2832 58.2082 95.1404 58.5924 95.7615 59.2132C96.3823 59.8335 96.7661 60.6915 96.7661 61.6384C96.7661 62.5852 96.3823 63.4428 95.7615 64.0639C95.1408 64.6846 94.2832 65.0685 93.336 65.0685C92.3888 65.0685 91.5308 64.6846 90.9105 64.0639C90.2897 63.4432 89.9059 62.5855 89.9059 61.6384C89.9059 60.6912 90.2897 59.8335 90.9105 59.2132C91.5312 58.5924 92.3888 58.2082 93.336 58.2082ZM95.1726 59.8021C94.7025 59.3324 94.0532 59.0417 93.3364 59.0417C92.6191 59.0417 91.9702 59.3324 91.5001 59.8021C91.0304 60.2719 90.7397 60.9215 90.7397 61.6384C90.7397 62.3556 91.0304 63.0045 91.5001 63.4742C91.9702 63.9444 92.6191 64.235 93.3364 64.235C94.0536 64.235 94.7025 63.9444 95.1726 63.4742C95.6424 63.0045 95.933 62.3552 95.933 61.6384C95.933 60.9215 95.6424 60.2719 95.1726 59.8021Z" fill="#000100"/>
<path fill-rule="evenodd" clip-rule="evenodd" d="M95.0373 60.5694C94.7964 59.2607 93.2307 59.0735 92.3669 59.5396C90.5061 60.5431 95.4621 62.8798 95.0373 60.5694Z" fill="white"/>
<path fill-rule="evenodd" clip-rule="evenodd" d="M94.9715 62.8513C95.245 62.8513 95.4676 62.6283 95.4676 62.3549C95.4676 62.0818 95.245 61.8592 94.9715 61.8592C94.6981 61.8592 94.4755 62.0818 94.4755 62.3549C94.4755 62.6283 94.6981 62.8513 94.9715 62.8513Z" fill="white"/>
<path fill-rule="evenodd" clip-rule="evenodd" d="M95.6698 69.6505C96.6718 69.6505 97.4892 68.8335 97.4892 67.8311C97.4892 66.8287 96.6722 66.0116 95.6698 66.0116C94.6677 66.0116 93.8503 66.8287 93.8503 67.8311C93.8503 68.8335 94.6677 69.6505 95.6698 69.6505Z" fill="#7FA9C6"/>
<path fill-rule="evenodd" clip-rule="evenodd" d="M95.6698 65.5952C96.2872 65.5952 96.8458 65.8457 97.2505 66.2504C97.6552 66.6547 97.9052 67.2136 97.9052 67.8311C97.9052 68.4481 97.6552 69.0071 97.2505 69.4118C96.8458 69.8165 96.2868 70.0665 95.6698 70.0665C95.0527 70.0665 94.4934 69.8165 94.0887 69.4118C93.684 69.0071 93.434 68.4478 93.434 67.8311C93.434 67.2132 93.6844 66.6547 94.0887 66.2504C94.4934 65.8457 95.0527 65.5952 95.6698 65.5952ZM96.6616 66.8389C96.4079 66.5852 96.0573 66.4284 95.6698 66.4284C95.2819 66.4284 94.9313 66.5852 94.6776 66.8389C94.4243 67.0926 94.2671 67.4432 94.2671 67.8311C94.2671 68.2186 94.4243 68.5688 94.6776 68.8228C94.9313 69.0765 95.2819 69.2334 95.6698 69.2334C96.0573 69.2334 96.4079 69.0765 96.6616 68.8228C96.9153 68.5691 97.0721 68.2186 97.0721 67.8311C97.0721 67.4436 96.9153 67.093 96.6616 66.8389Z" fill="#000100"/>
<path fill-rule="evenodd" clip-rule="evenodd" d="M96.0372 67.8128C96.3106 67.8128 96.5332 67.5894 96.5332 67.3167C96.5332 67.0433 96.3106 66.8206 96.0372 66.8206C95.7637 66.8206 95.5411 67.0433 95.5411 67.3167C95.5411 67.5894 95.7637 67.8128 96.0372 67.8128Z" fill="white"/>
<path fill-rule="evenodd" clip-rule="evenodd" d="M103.02 61.7118C104.022 61.7118 104.839 60.8948 104.839 59.8924C104.839 58.8904 104.022 58.0733 103.02 58.0733C102.018 58.0733 101.2 58.8904 101.2 59.8924C101.2 60.8948 102.018 61.7118 103.02 61.7118Z" fill="#7FA9C6"/>
<path fill-rule="evenodd" clip-rule="evenodd" d="M103.02 57.657C103.637 57.657 104.196 57.9074 104.601 58.3121C105.005 58.7171 105.256 59.2757 105.256 59.8931C105.256 60.5106 105.005 61.0695 104.601 61.4742C104.196 61.8785 103.637 62.1289 103.02 62.1289C102.403 62.1289 101.843 61.8785 101.439 61.4742C101.034 61.0695 100.784 60.5106 100.784 59.8931C100.784 59.2761 101.034 58.7171 101.439 58.3121C101.843 57.9074 102.402 57.657 103.02 57.657ZM104.011 58.901C103.758 58.6473 103.407 58.4901 103.02 58.4901C102.632 58.4901 102.282 58.6469 102.028 58.901C101.774 59.1547 101.617 59.5053 101.617 59.8924C101.617 60.2799 101.774 60.6308 102.028 60.8846C102.281 61.1379 102.632 61.2951 103.02 61.2951C103.407 61.2951 103.758 61.1379 104.011 60.8846C104.265 60.6308 104.422 60.2799 104.422 59.8924C104.422 59.5056 104.265 59.155 104.011 58.901Z" fill="#000100"/>
<path fill-rule="evenodd" clip-rule="evenodd" d="M103.387 59.8745C103.66 59.8745 103.883 59.6519 103.883 59.3784C103.883 59.1053 103.66 58.8823 103.387 58.8823C103.114 58.8823 102.891 59.1053 102.891 59.3784C102.891 59.6515 103.114 59.8745 103.387 59.8745Z" fill="white"/>
<path fill-rule="evenodd" clip-rule="evenodd" d="M59.9037 82.0173C55.9487 80.0384 51.9636 79.9906 51.0033 81.9109C50.0426 83.8309 53.242 83.4635 57.1967 85.4419C58.0189 85.8532 65.1127 89.5019 65.3255 89.0764C66.2865 87.1564 63.8592 83.9957 59.9037 82.0173Z" fill="#9F7F6F"/>
<path fill-rule="evenodd" clip-rule="evenodd" d="M66.2562 89.6474C64.5369 86.6092 61.207 83.1758 58.0346 81.7932C56.493 81.1209 55.2826 80.8917 53.6748 80.5225L55.079 80.2494C58.7716 80.0454 66.1294 84.6662 66.2562 89.6474Z" fill="#000100"/>
<path fill-rule="evenodd" clip-rule="evenodd" d="M84.8387 82.0173C88.7934 80.0384 92.7785 79.9906 93.7392 81.9109C94.5851 83.6016 80.2589 90.7598 79.4166 89.0767C78.4563 87.1564 80.8837 83.9957 84.8387 82.0173Z" fill="#9F7F6F"/>
<path fill-rule="evenodd" clip-rule="evenodd" d="M78.9556 90.399C78.5755 83.3512 86.5233 79.7741 90.278 80.2103L91.7454 80.615C89.8503 80.854 88.7572 80.9725 86.9345 81.723C83.6521 83.0749 80.5422 85.6642 78.9556 90.399Z" fill="#000100"/>
<path fill-rule="evenodd" clip-rule="evenodd" d="M53.9391 82.0337C57.2099 81.8871 61.0319 83.0262 63.6782 87.2891C64.4923 88.6012 60.7014 86.4253 58.0686 84.9649C55.8262 83.7201 53.9391 82.0337 53.9391 82.0337Z" fill="#B8A188"/>
<path fill-rule="evenodd" clip-rule="evenodd" d="M90.9861 82.0337C87.715 81.8871 83.8934 83.0262 81.2467 87.2891C80.4325 88.6012 84.2238 86.4253 86.8559 84.9649C89.0987 83.7201 90.9861 82.0337 90.9861 82.0337Z" fill="#B8A188"/>
<path fill-rule="evenodd" clip-rule="evenodd" d="M121.914 30.8835C122.816 31.4436 123.454 32.3319 123.696 33.3657C123.939 34.3996 123.762 35.4787 123.202 36.3813C122.642 37.2839 121.754 37.9218 120.72 38.1642C119.686 38.4065 118.607 38.2296 117.704 37.6699C116.802 37.1099 116.164 36.2219 115.922 35.1877C115.679 34.1539 115.856 33.0747 116.416 32.1722C116.975 31.2696 117.864 30.6317 118.898 30.3893C119.932 30.1473 121.011 30.3242 121.914 30.8835Z" fill="#000100"/>
<path fill-rule="evenodd" clip-rule="evenodd" d="M121.398 31.7159C122.812 32.5929 123.248 34.4507 122.37 35.8651C121.493 37.2795 119.635 37.7149 118.221 36.8379C116.807 35.9605 116.37 34.1031 117.248 32.6883C118.125 31.274 119.983 30.8386 121.398 31.7159Z" fill="#7FA9C6"/>
<path fill-rule="evenodd" clip-rule="evenodd" d="M121.617 31.3617C122.422 31.8611 122.949 32.6394 123.149 33.494C123.349 34.3487 123.224 35.2798 122.724 36.0848C122.225 36.8898 121.447 37.4162 120.592 37.6166C119.737 37.8169 118.806 37.6911 118.001 37.1921C117.196 36.6928 116.67 35.9145 116.469 35.0598C116.269 34.2051 116.395 33.274 116.894 32.4694C117.393 31.6644 118.171 31.138 119.026 30.9376C119.881 30.7366 120.812 30.8627 121.617 31.3617ZM122.338 33.6841C122.185 33.0371 121.787 32.4482 121.178 32.0702C120.569 31.6922 119.863 31.5968 119.216 31.7485C118.569 31.9002 117.98 32.2986 117.602 32.9084C117.224 33.5178 117.129 34.2226 117.281 34.8697C117.432 35.5167 117.831 36.106 118.44 36.4837C119.05 36.8617 119.755 36.9567 120.402 36.805C121.049 36.6537 121.638 36.2548 122.015 35.6454C122.394 35.036 122.489 34.3312 122.338 33.6841Z" fill="#000100"/>
<path fill-rule="evenodd" clip-rule="evenodd" d="M121.818 34.265C122.303 33.0258 121.071 32.0416 120.091 31.9821C117.982 31.8541 120.962 36.4522 121.818 34.265Z" fill="white"/>
<path fill-rule="evenodd" clip-rule="evenodd" d="M121.083 35.3263C121.316 35.4707 121.387 35.7763 121.243 36.0095C121.099 36.2424 120.793 36.314 120.56 36.1696C120.327 36.0252 120.256 35.7193 120.4 35.4864C120.544 35.2535 120.85 35.1819 121.083 35.3263Z" fill="white"/>
<path fill-rule="evenodd" clip-rule="evenodd" d="M129.204 47.587C129.794 47.9533 130.212 48.5342 130.37 49.2102C130.529 49.8861 130.413 50.5916 130.047 51.182C129.681 51.7721 129.1 52.1895 128.424 52.3482C127.748 52.5065 127.043 52.3906 126.452 52.025C125.862 51.6587 125.445 51.0778 125.287 50.4019C125.128 49.726 125.244 49.0204 125.61 48.43C125.976 47.84 126.557 47.4229 127.233 47.2646C127.908 47.106 128.614 47.2215 129.204 47.587Z" fill="#000100"/>
<path fill-rule="evenodd" clip-rule="evenodd" d="M128.787 48.2601C129.641 48.7898 129.904 49.911 129.375 50.7649C128.845 51.6185 127.723 51.8814 126.87 51.352C126.016 50.8223 125.753 49.7011 126.283 48.8472C126.812 47.9932 127.933 47.7307 128.787 48.2601Z" fill="#7FA9C6"/>
<path fill-rule="evenodd" clip-rule="evenodd" d="M129.007 47.9062C129.532 48.2312 129.875 48.7386 130.005 49.2957C130.136 49.8528 130.054 50.46 129.728 50.9846C129.403 51.5092 128.895 51.8525 128.339 51.9826C127.782 52.1131 127.174 52.0312 126.65 51.7063C126.125 51.3805 125.782 50.8735 125.651 50.316C125.521 49.7589 125.603 49.152 125.929 48.6271C126.254 48.1025 126.761 47.7592 127.318 47.6291C127.875 47.4986 128.482 47.5808 129.007 47.9062ZM129.194 49.4862C129.112 49.1367 128.897 48.8186 128.568 48.6143C128.238 48.4103 127.858 48.3591 127.508 48.4406C127.159 48.5229 126.841 48.7378 126.636 49.0672C126.432 49.3962 126.381 49.7772 126.462 50.1263C126.545 50.4758 126.759 50.7938 127.088 50.9981C127.418 51.2021 127.798 51.2537 128.148 51.1714C128.497 51.0895 128.815 50.8746 129.019 50.5452C129.224 50.2162 129.276 49.8353 129.194 49.4862Z" fill="#000100"/>
<path fill-rule="evenodd" clip-rule="evenodd" d="M128.673 49.1411C128.906 49.2855 128.978 49.5911 128.833 49.824C128.689 50.0572 128.383 50.1288 128.15 49.9841C127.918 49.8393 127.846 49.5341 127.99 49.3012C128.135 49.0683 128.441 48.9963 128.673 49.1411Z" fill="white"/>
<path fill-rule="evenodd" clip-rule="evenodd" d="M132.442 36.246C133.344 36.8057 133.982 37.6941 134.224 38.7279C134.467 39.7617 134.29 40.8409 133.73 41.7438C133.171 42.6464 132.282 43.2843 131.248 43.5263C130.214 43.7687 129.136 43.5921 128.233 43.0321C127.33 42.472 126.692 41.5841 126.45 40.5499C126.208 39.516 126.384 38.4369 126.944 37.5343C127.504 36.6317 128.392 35.9938 129.426 35.7514C130.46 35.5094 131.539 35.6864 132.442 36.246Z" fill="#000100"/>
<path fill-rule="evenodd" clip-rule="evenodd" d="M131.926 37.0781C133.34 37.9554 133.775 39.8129 132.898 41.2276C132.021 42.6417 130.163 43.0774 128.749 42.2C127.335 41.3231 126.899 39.4649 127.776 38.0509C128.653 36.6365 130.512 36.2011 131.926 37.0781Z" fill="#7FA9C6"/>
<path fill-rule="evenodd" clip-rule="evenodd" d="M132.145 36.7238C132.95 37.2232 133.477 38.0015 133.676 38.8562C133.877 39.7109 133.751 40.642 133.252 41.447C132.753 42.252 131.974 42.7784 131.12 42.9787C130.265 43.179 129.334 43.0533 128.529 42.5543C127.724 42.0549 127.197 41.2766 126.997 40.4219C126.797 39.5672 126.923 38.6361 127.422 37.8315C127.921 37.0265 128.699 36.5001 129.554 36.2998C130.409 36.0991 131.34 36.2248 132.145 36.7238ZM132.866 39.0463C132.714 38.3992 132.315 37.8103 131.706 37.4323C131.097 37.0539 130.391 36.9593 129.745 37.1106C129.097 37.2623 128.508 37.6608 128.13 38.2702C127.752 38.8796 127.657 39.5848 127.809 40.2315C127.961 40.8785 128.359 41.4678 128.969 41.8454C129.578 42.2234 130.283 42.3188 130.93 42.1668C131.577 42.0151 132.166 41.617 132.544 41.0072C132.922 40.3985 133.017 39.6933 132.866 39.0463Z" fill="#000100"/>
<path fill-rule="evenodd" clip-rule="evenodd" d="M132.346 39.6272C132.832 38.3879 131.599 37.4038 130.62 37.3442C128.51 37.2166 131.49 41.8147 132.346 39.6272Z" fill="white"/>
<path fill-rule="evenodd" clip-rule="evenodd" d="M131.611 40.6884C131.844 40.8328 131.916 41.1388 131.771 41.3717C131.627 41.6049 131.321 41.6762 131.089 41.5318C130.855 41.3874 130.784 41.0814 130.928 40.8485C131.072 40.6157 131.378 40.544 131.611 40.6884Z" fill="white"/>
<path fill-rule="evenodd" clip-rule="evenodd" d="M28.4902 27.7089C27.5876 28.2686 26.9496 29.157 26.7073 30.1908C26.4649 31.2246 26.6418 32.3038 27.2015 33.2064C27.7616 34.1089 28.6499 34.7469 29.6837 34.9892C30.7179 35.2316 31.7971 35.0547 32.6993 34.495C33.6019 33.9353 34.2394 33.047 34.4818 32.0131C34.7242 30.9793 34.5472 29.9002 33.9876 28.9976C33.4275 28.095 32.5392 27.4571 31.5054 27.2147C30.4719 26.9727 29.3927 27.1493 28.4902 27.7089Z" fill="#000100"/>
<path fill-rule="evenodd" clip-rule="evenodd" d="M29.006 28.5413C27.5916 29.4183 27.1562 31.2761 28.0336 32.6905C28.9106 34.1049 30.7684 34.5407 32.1828 33.6633C33.5971 32.7859 34.0325 30.9281 33.1555 29.5137C32.2782 28.0994 30.4204 27.6636 29.006 28.5413Z" fill="#7FA9C6"/>
<path fill-rule="evenodd" clip-rule="evenodd" d="M28.7866 28.1871C27.9816 28.6861 27.4552 29.4644 27.2549 30.3191C27.0546 31.1738 27.1803 32.1049 27.6797 32.9095C28.1791 33.7149 28.9573 34.2409 29.812 34.4416C30.6667 34.6416 31.5978 34.5162 32.4028 34.0168C33.2078 33.5175 33.7342 32.7392 33.9342 31.8845C34.1345 31.0301 34.0088 30.0987 33.5098 29.294C33.0104 28.4891 32.2321 27.9627 31.3774 27.7623C30.5227 27.562 29.5912 27.6881 28.7866 28.1871ZM28.0661 30.5092C28.2178 29.8621 28.6163 29.2728 29.2257 28.8952C29.8351 28.5172 30.5399 28.4222 31.1869 28.5739C31.834 28.7256 32.4229 29.1241 32.8013 29.7335C33.1793 30.3429 33.2743 31.0477 33.123 31.6951C32.9713 32.3422 32.5728 32.9311 31.9634 33.3091C31.354 33.6871 30.6488 33.7821 30.0021 33.6304C29.3551 33.4791 28.7658 33.0802 28.3882 32.4712C28.0098 31.8614 27.9144 31.1566 28.0661 30.5092Z" fill="#000100"/>
<path fill-rule="evenodd" clip-rule="evenodd" d="M28.5856 31.0905C28.1001 29.8512 29.3324 28.8667 30.3118 28.8071C32.4218 28.6792 29.4425 33.2773 28.5856 31.0905Z" fill="white"/>
<path fill-rule="evenodd" clip-rule="evenodd" d="M29.3207 32.1513C29.0879 32.2957 29.0162 32.6013 29.1606 32.8346C29.305 33.0674 29.611 33.1391 29.8439 32.9947C30.0767 32.8503 30.1484 32.5447 30.004 32.3114C29.8596 32.0786 29.5536 32.0069 29.3207 32.1513Z" fill="white"/>
<path fill-rule="evenodd" clip-rule="evenodd" d="M17.7597 46.7938C17.1693 47.1597 16.7522 47.7406 16.5939 48.4165C16.4356 49.0924 16.5511 49.798 16.917 50.388C17.283 50.978 17.8638 51.3955 18.5398 51.5542C19.2161 51.7125 19.9216 51.5966 20.512 51.231C21.102 50.8647 21.5192 50.2838 21.6774 49.6079C21.8361 48.9316 21.7206 48.226 21.3543 47.636C20.9884 47.046 20.4075 46.6289 19.7315 46.4706C19.0556 46.3119 18.3501 46.4275 17.7597 46.7938Z" fill="#000100"/>
<path fill-rule="evenodd" clip-rule="evenodd" d="M18.1771 47.4664C17.3235 47.9957 17.0603 49.1177 17.59 49.9713C18.1197 50.8252 19.2409 51.0881 20.0949 50.5584C20.9488 50.0287 21.2117 48.9075 20.682 48.0535C20.1523 47.1995 19.0311 46.9367 18.1771 47.4664Z" fill="#7FA9C6"/>
<path fill-rule="evenodd" clip-rule="evenodd" d="M17.9574 47.1125C17.4325 47.4375 17.0896 47.9449 16.9591 48.502C16.8285 49.0592 16.9104 49.6664 17.2358 50.191C17.5611 50.7156 18.0685 51.0588 18.6253 51.189C19.1824 51.3195 19.7896 51.2376 20.3142 50.9126C20.8388 50.5869 21.1821 50.0798 21.3126 49.5223C21.4431 48.9652 21.3612 48.358 21.0359 47.8338C20.7101 47.3092 20.2031 46.9659 19.646 46.8358C19.0892 46.7049 18.4824 46.7868 17.9574 47.1125ZM17.7702 48.6925C17.8521 48.343 18.0675 48.0246 18.3965 47.821C18.7255 47.6166 19.1064 47.5651 19.4555 47.6466C19.805 47.7289 20.123 47.9438 20.3274 48.2732C20.5314 48.6022 20.5829 48.9828 20.501 49.3323C20.4191 49.6817 20.2038 49.9998 19.8748 50.2041C19.5458 50.4081 19.1649 50.4597 18.8154 50.3778C18.4659 50.2959 18.1479 50.0806 17.9435 49.7512C17.7399 49.4226 17.6884 49.0416 17.7702 48.6925Z" fill="#000100"/>
<path fill-rule="evenodd" clip-rule="evenodd" d="M18.2908 48.347C18.0579 48.4914 17.9863 48.7971 18.1307 49.0299C18.2751 49.2632 18.5807 49.3348 18.8136 49.1904C19.0464 49.0457 19.1181 48.74 18.9737 48.5075C18.8297 48.2743 18.5237 48.2026 18.2908 48.347Z" fill="white"/>
<path fill-rule="evenodd" clip-rule="evenodd" d="M13.4642 34.1294C12.5616 34.6891 11.9241 35.5774 11.6817 36.6112C11.4393 37.6451 11.6163 38.7242 12.176 39.6268C12.7356 40.5294 13.624 41.1673 14.6578 41.4097C15.6916 41.652 16.7708 41.4755 17.6734 40.9154C18.576 40.3558 19.2139 39.4674 19.4562 38.4336C19.6986 37.3998 19.522 36.3206 18.962 35.418C18.4023 34.5154 17.514 33.8775 16.4805 33.6352C15.446 33.3931 14.3668 33.5697 13.4642 34.1294Z" fill="#000100"/>
<path fill-rule="evenodd" clip-rule="evenodd" d="M13.9804 34.9614C12.5661 35.8388 12.1303 37.6966 13.0077 39.111C13.885 40.525 15.7428 40.9608 17.1572 40.0834C18.5716 39.2061 19.007 37.3486 18.13 35.9342C17.2523 34.5198 15.3948 34.0844 13.9804 34.9614Z" fill="#7FA9C6"/>
<path fill-rule="evenodd" clip-rule="evenodd" d="M13.7611 34.6076C12.9561 35.1066 12.4297 35.8852 12.2294 36.7395C12.029 37.5942 12.1544 38.5253 12.6542 39.3303C13.1532 40.1353 13.9318 40.6617 14.7862 40.8617C15.6409 41.0624 16.572 40.9366 17.3769 40.4373C18.1819 39.9379 18.7083 39.16 18.9087 38.3049C19.109 37.4502 18.9836 36.5191 18.4839 35.7141C17.9849 34.9092 17.2066 34.3827 16.3519 34.1824C15.4968 33.9824 14.5657 34.1082 13.7611 34.6076ZM13.0402 36.9296C13.1919 36.2826 13.5904 35.6937 14.1998 35.3157C14.8092 34.9377 15.5144 34.8426 16.1614 34.9943C16.8085 35.146 17.3974 35.5445 17.7758 36.1539C18.1538 36.7637 18.2488 37.4685 18.0971 38.1155C17.9454 38.7626 17.5469 39.3519 16.9375 39.7299C16.3281 40.1079 15.6233 40.2029 14.9763 40.0512C14.3292 39.8995 13.7403 39.501 13.3619 38.8916C12.9839 38.2819 12.8889 37.5771 13.0402 36.9296Z" fill="#000100"/>
<path fill-rule="evenodd" clip-rule="evenodd" d="M13.5597 37.5105C13.0742 36.2713 14.3069 35.2868 15.2862 35.2276C17.3963 35.0996 14.4162 39.6977 13.5597 37.5105Z" fill="white"/>
<path fill-rule="evenodd" clip-rule="evenodd" d="M14.2952 38.5718C14.0623 38.7162 13.9903 39.0221 14.1351 39.255C14.2791 39.4879 14.5851 39.5599 14.8183 39.4151C15.0508 39.2707 15.1228 38.9651 14.9784 38.7319C14.8337 38.499 14.5281 38.4274 14.2952 38.5718Z" fill="white"/>
<path d="M202.084 87.504C199.444 87.504 197.068 86.952 194.956 85.848C192.868 84.72 191.224 83.16 190.024 81.168C188.824 79.176 188.224 76.92 188.224 74.4C188.224 71.88 188.824 69.624 190.024 67.632C191.224 65.64 192.868 64.092 194.956 62.988C197.068 61.86 199.444 61.296 202.084 61.296C204.388 61.296 206.464 61.704 208.312 62.52C210.16 63.336 211.696 64.512 212.92 66.048L208.384 70.152C206.752 68.184 204.772 67.2 202.444 67.2C201.076 67.2 199.852 67.5 198.772 68.1C197.716 68.7 196.888 69.552 196.288 70.656C195.712 71.736 195.424 72.984 195.424 74.4C195.424 75.816 195.712 77.076 196.288 78.18C196.888 79.26 197.716 80.1 198.772 80.7C199.852 81.3 201.076 81.6 202.444 81.6C204.772 81.6 206.752 80.616 208.384 78.648L212.92 82.752C211.696 84.288 210.16 85.464 208.312 86.28C206.464 87.096 204.388 87.504 202.084 87.504ZM216.098 61.8H223.226V81.348H235.25V87H216.098V61.8ZM249.843 61.296C252.219 61.296 254.307 61.776 256.107 62.736C257.931 63.672 259.335 65.052 260.319 66.876C261.327 68.676 261.831 70.848 261.831 73.392V87H254.703V81.42H244.875V87H237.855V73.392C237.855 70.848 238.347 68.676 239.331 66.876C240.339 65.052 241.743 63.672 243.543 62.736C245.367 61.776 247.467 61.296 249.843 61.296ZM254.703 75.912V72.78C254.703 70.932 254.259 69.54 253.371 68.604C252.483 67.668 251.295 67.2 249.807 67.2C248.295 67.2 247.095 67.668 246.207 68.604C245.319 69.54 244.875 70.932 244.875 72.78V75.912H254.703ZM296.137 61.296C299.113 61.296 301.429 62.184 303.085 63.96C304.765 65.712 305.605 68.256 305.605 71.592V87H298.477V71.808C298.477 70.296 298.081 69.156 297.289 68.388C296.497 67.596 295.441 67.2 294.121 67.2C292.705 67.2 291.577 67.62 290.737 68.46C289.921 69.276 289.513 70.512 289.513 72.168V87H282.385V71.808C282.385 70.296 282.013 69.156 281.269 68.388C280.549 67.596 279.553 67.2 278.281 67.2C276.913 67.2 275.821 67.62 275.005 68.46C274.189 69.276 273.781 70.512 273.781 72.168V87H266.653V61.8H273.565V64.608C274.333 63.528 275.317 62.712 276.517 62.16C277.741 61.584 279.157 61.296 280.765 61.296C282.421 61.296 283.861 61.596 285.085 62.196C286.333 62.796 287.341 63.672 288.109 64.824C288.973 63.672 290.101 62.796 291.493 62.196C292.885 61.596 294.433 61.296 296.137 61.296ZM339.942 61.296C342.918 61.296 345.234 62.184 346.89 63.96C348.57 65.712 349.41 68.256 349.41 71.592V87H342.282V71.808C342.282 70.296 341.886 69.156 341.094 68.388C340.302 67.596 339.246 67.2 337.926 67.2C336.51 67.2 335.382 67.62 334.542 68.46C333.726 69.276 333.318 70.512 333.318 72.168V87H326.19V71.808C326.19 70.296 325.818 69.156 325.074 68.388C324.354 67.596 323.358 67.2 322.086 67.2C320.718 67.2 319.626 67.62 318.81 68.46C317.994 69.276 317.586 70.512 317.586 72.168V87H310.458V61.8H317.37V64.608C318.138 63.528 319.122 62.712 320.322 62.16C321.546 61.584 322.962 61.296 324.57 61.296C326.226 61.296 327.666 61.596 328.89 62.196C330.138 62.796 331.146 63.672 331.914 64.824C332.778 63.672 333.906 62.796 335.298 62.196C336.69 61.596 338.238 61.296 339.942 61.296Z" fill="black"/>
</svg>
